<?xml version="1.0" encoding="UTF-8"?><svg id="b" xmlns="http://www.w3.org/2000/svg" width="218.584" height="168.072" viewBox="0 0 218.584 168.072"><defs><style>.d{fill:#74c66d;}.e{fill:#211715;}</style></defs><g id="c"><path class="e" d="M4.682,68.734c.382-1.985,1.638-3.597,3.509-4.449,2.134-.972,4.148-.203,6.292.597,2.726,1.017,5.864,1.637,8.502.01,2.294-1.415,3.304-4.007,4.073-6.458.928-2.954-3.705-4.218-4.629-1.276-.567,1.805-1.177,4.001-3.408,3.954-1.254-.026-2.482-.566-3.638-1-1.425-.535-2.826-.978-4.353-1.1-5.03-.402-10.032,3.534-10.977,8.446-.245,1.272.357,2.59,1.676,2.952,1.175.323,2.706-.397,2.952-1.676h0Z"/><path class="d" d="M212.279,132.559c-.761,1.321-1.589,2.579-2.44,3.752-4.558,6.277-10.211,11.774-17.222,16.667-9.881,6.896-22.638,11.758-34.431,6.792-5.283-2.225-9.167-6.925-11.196-12.286-2.661-7.029.016-19.458-7.874-23.592-1.915-1.003-4.16-1.213-6.274-.759-4.064.874-7.178,3.529-10.216,6.135-9.972,8.556-19.663,18.551-30.85,25.455-13.796,8.514-31.193,16.442-46.407,5.94-9.37-6.468-13.704-18.528-13.337-29.907.335-10.39,4.04-20.351,8.539-29.605,4.039-8.306,10.445-15.319,13.815-23.965,2.005-5.143,2.139-12.982-3.997-15.685-1.051-.463-2.193-.685-3.34-.731-7.292-.293-15.97.885-22.25-3.766-3.623-2.684-5.687-6.874-5.692-11.383-.006-6.569,4.397-11.626,9.374-15.473,2.576-1.991,4.98-4.328,6.423-7.247C46.394-.353,82.977-5.356,100.472,15.728c2.059,2.482,3.638,5.346,4.867,8.327,3.325,8.068,3.734,17.153,2.117,25.728-2.413,12.793-8.987,24.258-16.385,34.783-4.782,6.802-10.269,14.592-14.06,22.694-1.316,2.813-1.394,4.607-.423,6.364.624,1.129,1.717,1.688,2.974,1.979s2.662.449,3.914.136c6.801-1.703,10.939-6.732,15.805-11.386,5.603-5.36,11.564-10.442,18.399-14.173,10.796-5.892,27.754-8.489,37.716.298,9.361,8.257,9.592,19.848,13.704,31.301.512,1.427,1.544,2.657,2.742,3.586,1.605,1.244,3.73,1.65,5.758,1.553,6.667-.316,12.001-3.83,16.796-7.94,3.111-2.667,5.314-4.534,8.444-7.056,3.5-2.819,7.43-2.778,9.833-.944,1.497,1.142,2.788,3.448,3.242,5.968.962,5.335-.909,10.881-3.636,15.614Z"/><path class="e" d="M210.206,131.348c-3.469,5.943-8.288,11.112-13.534,15.527-5.219,4.393-11.136,8.297-17.607,10.561-6.31,2.207-13.101,2.78-19.436.343-5.165-1.987-9.25-6.872-10.726-12.167-1.294-4.641-.948-9.652-2.1-14.466-1.348-5.637-5.239-10.348-11.391-10.632-7.12-.328-12.857,5.568-17.762,9.923-5.404,4.797-10.663,9.763-16.246,14.355-5.347,4.398-11.067,8.242-17.161,11.531-5.767,3.112-11.984,5.8-18.527,6.686-6.459.875-12.889-.357-18.385-3.916-4.902-3.175-8.484-8.124-10.515-13.561-4.892-13.093-1.447-27.147,4.09-39.458,1.438-3.197,3.008-6.304,4.847-9.291,1.864-3.029,3.89-5.954,5.779-8.967,3.2-5.105,6.449-10.79,6.49-16.988.038-5.884-3.312-11.399-9.475-12.303-3.118-.457-6.356-.169-9.5-.234-3.124-.064-6.253-.295-9.227-1.324-5.561-1.924-9.195-7.472-8.15-13.378.492-2.779,1.936-5.288,3.784-7.388,2.161-2.456,4.858-4.236,7.216-6.471,1.228-1.164,2.344-2.461,3.289-3.867.765-1.138,1.315-2.396,1.997-3.582,1.195-2.079,2.518-3.881,4.12-5.612,3.189-3.447,6.928-6.075,11.196-8.091,8.348-3.943,18.296-4.872,27.232-2.585,10.334,2.644,19.215,9.716,23.009,19.939,5.04,13.58,1.732,28.504-4.546,41.077-6.517,13.051-16.456,23.97-23.026,36.987-1.498,2.967-3.235,6.35-1.936,9.709s4.742,4.717,8.182,4.603c3.36-.111,6.795-1.893,9.48-3.811,2.57-1.836,4.827-4.026,7.064-6.243,9.127-9.043,19.262-17.684,32.185-20.301,5.422-1.098,11.211-1.159,16.49.641,5.523,1.883,9.628,6.216,12.23,11.335,2.787,5.481,3.895,11.66,5.573,17.529.929,3.25,1.756,6.76,4.354,9.117,2.702,2.451,6.19,3.033,9.712,2.597,7.063-.875,12.639-4.924,17.903-9.422,1.304-1.115,2.613-2.225,3.932-3.323,1.4-1.165,2.78-2.493,4.361-3.407,1.92-1.111,4.6-1.457,6.235.322,2.07,2.253,2.325,5.805,1.937,8.693-.444,3.312-1.795,6.435-3.434,9.317-1.529,2.689,2.616,5.111,4.145,2.423,3.553-6.249,6.02-14.348,2.589-21.186-1.512-3.013-4.223-4.987-7.595-5.263-3.735-.306-6.709,1.681-9.468,3.928-5.144,4.189-10.055,9.506-16.354,11.951-2.739,1.063-6.545,2.091-9.37.784-2.931-1.357-3.523-5.02-4.319-7.804-1.765-6.177-3.023-12.543-5.89-18.343-2.778-5.619-7.288-10.522-13.102-13.025-11.101-4.78-24.714-2.126-34.953,3.616-6.506,3.649-12.275,8.508-17.671,13.622-4.518,4.282-8.743,9.544-14.985,11.271-1.195.331-3.134.327-4.184-.468-.69-.522-.8-1.419-.685-2.212.246-1.699,1.257-3.335,2.03-4.835.916-1.778,1.895-3.522,2.916-5.241,3.809-6.408,8.285-12.355,12.41-18.552,8.131-12.215,14.805-26.119,15.046-41.066.121-7.501-1.464-15.062-5.048-21.684-2.828-5.225-7.151-9.568-12.122-12.781C85.019.938,74.426-.934,64.384.424c-9.92,1.341-19.617,5.913-26.288,13.496-1.709,1.943-3.246,4.061-4.505,6.323-.727,1.305-1.332,2.665-2.248,3.857-.988,1.286-2.205,2.418-3.446,3.455-2.503,2.093-4.969,4.048-6.983,6.648-1.963,2.534-3.483,5.469-3.966,8.666-1.044,6.905,2.109,13.802,8.258,17.252,5.848,3.281,12.762,2.951,19.241,2.994,2.646.018,5.48.087,7.198,2.228,1.441,1.796,1.685,4.128,1.544,6.394-.159,2.561-1.166,5.166-2.34,7.551-1.568,3.186-3.483,6.185-5.424,9.153s-3.929,5.929-5.647,9.042c-1.828,3.313-3.362,6.808-4.791,10.309-2.926,7.166-5.012,14.738-5.336,22.504-.53,12.706,4.537,26.22,15.635,33.179,5.978,3.748,13.101,5.193,20.084,4.375,6.935-.812,13.479-3.336,19.655-6.518,6.413-3.304,12.422-7.261,18.059-11.757,5.771-4.602,11.157-9.656,16.652-14.577,2.544-2.279,5.069-4.69,7.841-6.693,2.572-1.859,5.826-3.643,9.101-2.79,4.729,1.232,5.686,6.61,6.168,10.923.294,2.626.468,5.265.886,7.876.431,2.691,1.355,5.215,2.677,7.601,3.333,6.015,8.894,10.111,15.599,11.585,14.392,3.163,28.554-4.933,39.035-14.067,5.144-4.483,9.859-9.755,13.309-15.663,1.561-2.673-2.586-5.092-4.145-2.423Z"/><path class="e" d="M48.923,30.818c-.722-2.625-.031-8.585,4.89-8.928,6.484.259,6.621,7.497,4.341,10.821-1.867,2.721-7.156,3.7-9.23-1.894Z"/></g></svg>