<?xml version="1.0" encoding="UTF-8"?><svg id="b" xmlns="http://www.w3.org/2000/svg" width="128.003" height="418.389" viewBox="0 0 128.003 418.389"><defs><style>.d{fill:#211715;}.d,.e,.f,.g,.h{stroke-width:0px;}.e{fill:#f8b8b4;}.f{fill:#645d5c;}.g{fill:#fff;}.h{fill:#3d8dcc;}</style></defs><g id="c"><path class="g" d="M58.209,103.597c-2.099-3.285-3.987-6.731-5.853-10.168,2.625,1.326,6.381,2.462,11.618,2.462,5.44,0,9.003-.898,11.422-2.038-3.343,6.156-6.785,12.317-11.404,17.511-2.146-2.413-4.037-5.034-5.783-7.767Z"/><path class="f" d="M40.414,72.789c-1.669-2.759-2.767-5.504-3.476-7.911-1.428.367-2.971-.164-3.995-1.001-.04-.033-.08-.066-.119-.099-2.552,2.162-4.396,5.193-5.062,8.489-.825,4.191.835,8.673,1.483,12.905.557,3.619.342,7.365-1.091,10.695l-1.466,3.407c5.554-2.751,12.571-5.341,18.212-7.245.036-.189.077-.376.119-.564.714-4.069,2.405-6.753,4.085-7.718,0,0,.568-.326,1.347-.772-2.597-1.444-4.972-3.551-7.245-6.272-1.073-1.285-1.997-2.601-2.792-3.915Z"/><path class="d" d="M33.963,60.532c-5.209,3.102-8.72,8.897-8.402,15.035.179,3.447,1.261,6.738,1.755,10.136.476,3.275.177,6.567-1.091,9.632-.413.999.447,2.199,1.397,2.46,1.15.316,2.046-.395,2.46-1.397,1.176-2.843,1.595-5.982,1.4-9.045-.208-3.272-1.142-6.412-1.681-9.632-.469-2.801-.319-5.576.976-8.143,1.181-2.34,2.952-4.252,5.204-5.593,2.21-1.316.2-4.775-2.019-3.454h0Z"/><path class="g" d="M55.005,41.823c-2.16.331-4.274.741-6.193,1.157-4.478,1.993-8.915,3.72-12.913,5.022-.331-.258-.694-.453-1.067-.595-.589-.223-1.204-.31-1.768-.29-2.251.079-3.209,1.297-3.621,2.012-1.23,2.134-1.178,6.066-.352,8.499.585,1.723,1.543,4.359,3.853,6.248,1.024.838,2.567,1.368,3.995,1.001,1.046,3.554,2.941,7.843,6.268,11.825,2.729,3.266,5.603,5.647,8.833,7.06-.094,1.103-.248,2.154-.444,3.294-.203,1.122-.251,2.175-.765,3.055.251.943.725,1.83,1.192,2.692.112.207.225.415.337.623,2.621,1.328,6.376,2.463,11.613,2.463,5.437,0,8.999-.897,11.418-2.036.189-.35.379-.7.568-1.05.467-.862.941-1.749,1.192-2.692-.514-.88-.562-1.933-.765-3.055-.193-1.122-.345-2.158-.439-3.24,7.07-3.01,12.785-12.8,13.775-15.486.321-.668.845-2.044,1.27-3.448.225.038.354.06.354.06,1.339.226,2.74-.287,3.692-1.066,2.31-1.89,3.268-4.526,3.853-6.248.826-2.433.878-6.365-.352-8.499-.412-.715-1.37-1.932-3.621-2.012-.952-.034-2.053.238-2.917.96-1.346-.785-2.731-1.688-4.091-2.714-2.169-.675-4.246-1.336-5.811-1.712-4.915-1.181-12.214-2.665-18.109-2.541-2.813-.059-5.946.248-8.987.713Z"/><path class="h" d="M97.645,196.325c4.808,13.808,4.079,28.846,3.247,43.443-2.474,43.409-4.367,97.064-7.646,140.527-.031.415-.311.768-.71.887-9.004,2.692-19.872,2.744-28.621.106-8.748,2.638-19.608,2.585-28.608-.105-.401-.12-.681-.478-.71-.895-3.088-45.44-6.087-95.184-7.651-140.52-.504-14.612-1.56-29.635,3.247-43.443l6.137-7.978h57.803l3.511,7.978Z"/><path class="d" d="M28.266,195.793c-4.65,13.541-3.902,28.045-3.385,42.127.517,14.066,1.075,28.13,1.756,42.189,1.388,28.67,3.116,57.323,5.008,85.964.263,3.98.529,7.96.799,11.939.123,1.823-.051,3.95,1.855,4.898,1.506.749,3.417,1.001,5.055,1.315,7.501,1.437,15.314,1.359,22.758-.38,2.506-.585,1.445-4.443-1.063-3.857-6.15,1.436-12.671,1.652-18.913.678-1.568-.245-3.125-.561-4.661-.957-.082-.021-1.232-.329-1.23-.336.038-.13.146,1.236.292.005.109-.926-.138-2.03-.2-2.963-.227-3.37-.453-6.741-.675-10.111-.916-13.856-1.792-27.716-2.611-41.578-1.628-27.547-3.046-55.109-4.023-82.688-.533-15.051-1.884-30.679,3.096-45.182.838-2.44-3.025-3.488-3.857-1.063h0Z"/><path class="d" d="M61.797,232.953c0,8.238.016,16.476.032,24.714.022,11.56.048,23.119.076,34.679.029,12.404.061,24.809.092,37.213.027,10.595.054,21.189.079,31.784.015,6.3.033,12.601.039,18.901,0,.35,0,.701,0,1.051,0,2.574,4,2.578,4,0,0-5.585-.019-11.171-.032-16.756-.024-10.199-.05-20.398-.076-30.597-.031-12.325-.062-24.649-.092-36.974-.028-11.797-.056-23.593-.079-35.39-.017-8.794-.035-17.588-.039-26.381,0-.748,0-1.495,0-2.243,0-2.574-4-2.578-4,0h0Z"/><path class="d" d="M95.717,196.856c4.692,13.654,4.007,28.254,3.202,42.45-.748,13.188-1.406,26.381-2.044,39.575-1.327,27.433-2.561,54.872-4.306,82.282-.232,3.649-.474,7.297-.729,10.944-.124,1.782-.252,3.564-.382,5.346-.015.211-.141,2.434-.181,2.436l.323-.518c-.272.078-.544.154-.818.227-.551.148-1.105.285-1.662.412-7.284,1.663-15.052,1.676-22.329-.023-2.504-.585-3.573,3.271-1.063,3.857,6.895,1.61,14.057,1.768,21.043.678,1.708-.267,3.404-.619,5.074-1.066,1.805-.484,3.18-1.122,3.401-3.162.354-3.265.484-6.572.709-9.849.956-13.913,1.745-27.838,2.473-41.765,1.464-28.008,2.647-56.03,4.191-84.034.897-16.276,2.353-33.147-3.045-48.854-.832-2.42-4.697-1.38-3.857,1.063h0Z"/><path class="g" d="M62.881,383.46c.245-11.708.665-39.48.976-50.287-.269-1.141-.997-2.271-2.157-2.271-8.841,0-23.942-.002-32.469-.002-1.174,0-2.823,1.719-2.788,2.982.286,10.386.551,20.297,1.067,34.525.162,4.456-.089,6.63-.448,8.316-.745,4.349-3.173,7.511-4.919,9.065-5.2,4.624-7.341,6.11-10.084,9.668-2.538,3.291-5.095,9.444-3.648,14.033.99,3.141,3.933,4.996,7.215,6.238,1.432.542,6.834.919,9.565.452,4.267-.729,8.083-2.1,11.265-4.356,5.453-3.866,10.002-7.704,15.765-11.634,2.024-1.379,4.541-2.334,6.463-3.832,1.11-.865,2.378-1.944,3.054-3.13.963-1.692.931-3.448,1.091-5.234,0-1.264.015-2.798.051-4.533Z"/><path class="g" d="M65.102,383.46c-.245-11.708-.665-39.48-.976-50.287.269-1.141.997-2.271,2.157-2.271,8.841,0,23.942-.002,32.469-.002,1.174,0,2.823,1.719,2.788,2.982-.286,10.386-.551,20.297-1.067,34.525-.162,4.456.089,6.63.448,8.316.745,4.349,3.173,7.511,4.919,9.065,5.2,4.624,7.341,6.11,10.084,9.668,2.538,3.291,5.095,9.444,3.648,14.033-.99,3.141-3.933,4.996-7.215,6.238-1.432.542-6.834.919-9.565.452-4.267-.729-8.083-2.1-11.265-4.356-5.453-3.866-10.002-7.704-15.765-11.634-2.024-1.379-4.541-2.334-6.463-3.832-1.11-.865-2.378-1.944-3.054-3.13-.963-1.692-.931-3.448-1.091-5.234,0-1.264-.015-2.798-.051-4.533Z"/><path class="d" d="M67.102,383.46c-.286-13.754-.476-27.51-.763-41.264-.057-2.739-.116-5.479-.191-8.218-.005-.178-.041-.459,0-.614.02-.074.368-.592.134-.462.233-.13.933,0,1.201,0,.477,0,.953,0,1.43,0,1.936,0,3.871,0,5.807,0,4.194,0,8.388,0,12.581-.001,2.022,0,4.044,0,6.066,0,1.623,0,3.498-.263,5.1,0,1.444.237,1.039,2.164,1.007,3.331-.055,1.991-.11,3.983-.165,5.974-.117,4.16-.239,8.32-.37,12.48-.155,4.892-.377,9.783-.496,14.676-.087,3.582.057,7.342,1.315,10.739,1.465,3.958,4.063,6.6,7.18,9.308,2.519,2.189,5.108,4.332,7.183,6.967,2.326,2.954,4.049,6.96,3.854,10.771-.181,3.545-3.39,5.967-6.634,6.795-3.227.823-6.993.617-10.184-.126-2.149-.5-4.257-1.2-6.209-2.237-2.14-1.136-4.065-2.655-5.999-4.103-4.039-3.025-7.975-6.215-12.179-9.013-3.399-2.262-8.83-3.735-9.45-8.423-.287-2.169-.174-4.396-.218-6.578-.051-2.571-4.052-2.579-4,0,.05,2.508-.031,5.026.338,7.515s1.631,4.429,3.515,6.043c1.957,1.675,4.165,2.767,6.386,4.031,2.275,1.294,4.38,2.932,6.476,4.493,2.14,1.594,4.25,3.229,6.38,4.836,2.06,1.553,4.111,3.211,6.374,4.461,3.988,2.202,8.689,3.53,13.254,3.551,3.884.018,7.503-.435,10.854-2.532,4.007-2.507,5.766-6.525,5.172-11.187-.562-4.414-2.626-8.451-5.474-11.82-2.476-2.929-5.537-5.309-8.401-7.837-3.014-2.659-4.679-5.836-5.313-9.82-.647-4.065-.105-9.072.043-13.412.309-9.057.565-18.116.814-27.175.059-2.155-.939-4.12-2.887-5.176-1.618-.876-3.788-.53-5.568-.53-4.339,0-8.679,0-13.018.001s-8.646,0-12.97.001c-1.959,0-4.169-.321-5.621,1.293-1.356,1.507-1.321,3.215-1.273,5.094.374,14.708.561,29.42.839,44.13.026,1.347.052,2.693.08,4.04.053,2.57,4.054,2.579,4,0Z"/><path class="d" d="M64.881,383.46c.304-14.618.497-29.237.818-43.855.032-1.476.066-2.953.104-4.429.047-1.837.061-3.514-1.276-4.981-1.498-1.643-3.776-1.293-5.786-1.293-2.076,0-4.152,0-6.228,0-4.514,0-9.028,0-13.542-.001-2.073,0-4.145,0-6.218,0-1.784,0-3.931-.343-5.531.598-1.967,1.158-2.815,3.088-2.754,5.288.058,2.108.116,4.216.175,6.325.124,4.456.254,8.912.395,13.368.166,5.252.455,10.51.519,15.764.045,3.765-.19,7.354-2.122,10.741-1.984,3.478-5.529,5.784-8.447,8.423-2.738,2.477-5.238,5.296-6.835,8.654-1.935,4.07-3.161,9.146-1.084,13.402,1.641,3.363,5.776,5.927,9.41,6.507,4.109.655,8.223.542,12.253-.507,2.312-.602,4.587-1.468,6.679-2.625,2.329-1.288,4.439-2.999,6.557-4.599,4.234-3.198,8.385-6.821,13.041-9.396,2.112-1.168,4.175-2.242,6.019-3.826,2.063-1.772,3.25-3.869,3.587-6.574.288-2.317.22-4.653.267-6.983.051-2.575-3.949-2.575-4,0-.044,2.227.078,4.506-.237,6.716-.319,2.241-1.827,3.696-3.629,4.934-1.844,1.267-3.94,2.111-5.802,3.351-2.175,1.449-4.273,3.022-6.359,4.596-3.825,2.886-7.571,6.271-11.819,8.52-3.651,1.932-7.801,2.9-11.909,2.801-3.236-.078-6.241-.536-8.82-2.694-3.242-2.712-2.513-7.139-1.115-10.658,1.259-3.169,3.409-5.786,5.871-8.098,2.681-2.518,5.898-4.655,8.188-7.548,5.436-6.867,4.298-15.65,4.02-23.825-.289-8.501-.533-17.003-.767-25.506-.031-1.145-.377-2.918,1.012-3.15.758-.127,1.658,0,2.427,0,.949,0,1.898,0,2.847,0,4.108,0,8.215,0,12.323.001,3.986,0,7.971,0,11.957,0,.692,0,1.834-.223,2.484,0,.208.071.295.574.281,1.076-.034,1.25-.065,2.5-.094,3.751-.324,13.983-.519,27.969-.785,41.953-.024,1.26-.049,2.519-.075,3.779-.054,2.575,3.946,2.575,4,0Z"/><path class="h" d="M22.545,213.206c.162-7.718.54-22.046.675-35.082,0,0,.002-.169.007-.48-1.562.544-3.309.902-5.242.974-4.142,0-8.569-1.926-10.577-3.803-2.418-2.258-3.536-3.8-4.633-7.14-.851-2.59-.991-6.452-.772-8.458,1.57-14.072,3.648-22.249,8.201-38.805,1.379-5.559,3.236-10.792,8.68-16.153,4.481-4.397,17.002-9.188,26.013-12.229.038-.189.08-.377.122-.565.714-4.069,2.405-6.753,4.085-7.718l1.093-.931c.597.359,1.213.671,1.842.946-.094,1.103-.248,2.154-.444,3.294-.203,1.122-.251,2.175-.765,3.055.251.943.725,1.83,1.192,2.692,3.521,6.503,7.087,13.071,11.968,18.559,4.881-5.489,8.447-12.057,11.968-18.559.467-.862.941-1.749,1.192-2.692-.514-.88-.562-1.933-.765-3.055-.193-1.123-.346-2.16-.438-3.241.657-.28,1.302-.618,1.929-1.012l1.001.943c1.68.965,3.371,3.649,4.085,7.718.051.228.101.456.151.685,8.974,3.223,22.156,8.563,26.573,13.163,4.944,5.149,6.809,9.879,8.145,15.103,4.622,16.797,6.567,24.631,8.147,38.801.219,2.007.078,5.868-.772,8.458-1.097,3.34-2.215,4.882-4.633,7.14-2.008,1.876-6.435,3.803-10.577,3.803-1.939-.072-3.69-.431-5.255-.978.005.313.006.484.006.484.157,17.316.764,35.63.764,39.922-.077.507-.492.912-1.026.958-3.18.243-77.812.243-80.992,0-.534-.046-.949-.451-1.026-.958,0-.937.029-2.614.076-4.841Z"/><path class="d" d="M89.59,62.311c-.3,1.437-.744,2.847-1.266,4.219-.192.506-.324.765-.564,1.363-.202.502.145-.292-.028.067-.061.127-.118.257-.179.384-.863,1.803-1.94,3.514-3.091,5.144-2.681,3.799-6.35,7.949-11.062,9.056-2.505.589-1.444,4.446,1.063,3.857,5.599-1.316,9.907-5.99,13.151-10.472,1.256-1.735,2.425-3.566,3.359-5.498.202-.418.383-.844.562-1.272.214-.513-.165.356.072-.165.153-.337.291-.682.428-1.025.59-1.488,1.085-3.026,1.412-4.594.524-2.512-3.331-3.586-3.857-1.063h0Z"/><path class="d" d="M34.457,63.275c2.402,10.534,10.334,22.02,21.718,23.737,1.067.161,2.15-.268,2.46-1.397.26-.945-.322-2.298-1.397-2.46-10.092-1.522-16.801-11.631-18.924-20.943-.572-2.509-4.43-1.447-3.857,1.063h0Z"/><path class="d" d="M58.538,72.241c1.792.946,3.72,1.355,5.748,1.342,2.136-.014,4.214-.468,5.916-1.794.829-.646.729-2.159,0-2.828-.88-.807-1.944-.689-2.828,0,.692-.539-.015-.018-.234.096-.169.089-.618.229.016.013-.156.053-.308.118-.465.169-.422.136-.888.157-1.302.297.212-.072.331-.04.031-.01-.128.013-.256.023-.384.032-.308.02-.617.028-.925.026-.276-.002-.553-.011-.828-.03-.127-.009-.253-.019-.379-.031-.072-.007-.144-.015-.216-.024-.157-.019-.095-.011.188.025-.015.053-1.105-.237-1.216-.27-.17-.051-.336-.112-.504-.17-.446-.153.425.203.021.012-.209-.098-.414-.201-.618-.308-.925-.488-2.217-.265-2.736.718-.488.924-.27,2.215.718,2.736h0Z"/><path class="d" d="M63.003,59.045c.238.907.466,1.827.602,2.755l-.071-.532c.016.127.023.253.01.38l.071-.532c-.009.059-.022.115-.042.171l.202-.478c-.018.04-.036.074-.06.11l.313-.405c-.028.034-.055.061-.09.089l.405-.313c-.07.045-.143.081-.218.115l.478-.202c-.12.05-.239.087-.368.107l.532-.071c-.116.014-.229.013-.345,0l.532.071c-.13-.018-.258-.05-.388-.067-.266-.083-.532-.095-.798-.036-.266.012-.514.091-.744.237-.415.243-.811.718-.919,1.195-.117.512-.091,1.087.202,1.541l.313.405c.25.248.544.419.883.514.348.047.687.134,1.041.15.572.025,1.093-.155,1.601-.39.639-.297,1.144-.905,1.314-1.592.145-.589.087-1.059-.013-1.649-.15-.888-.355-1.767-.583-2.638-.127-.483-.49-.944-.919-1.195s-1.061-.357-1.541-.202c-.484.157-.951.457-1.195.919-.253.48-.342,1.007-.202,1.541h0Z"/><path class="d" d="M37.619,46.853c-2.024-1.806-4.871-2.227-7.344-1.094-1.766.809-2.851,2.48-3.349,4.308-1.137,4.179-.075,9.066,2.321,12.631,1.644,2.446,4.242,4.652,7.389,4.244,1.071-.139,2-.82,2-2,0-.973-.921-2.14-2-2-2.177.282-3.594-1.52-4.538-3.262-.759-1.399-1.408-3.153-1.551-4.819-.155-1.803-.042-3.645.825-5.039-.326.524.512-.436.202-.21.399-.292.498-.326.918-.42.818-.182,1.647-.092,2.299.489,1.915,1.709,4.754-1.11,2.828-2.828h0Z"/><path class="d" d="M93.193,49.682c.616-.549,1.403-.659,2.172-.516.498.093.62.137,1.045.447-.303-.221.52.72.202.21.87,1.396.98,3.231.825,5.039-.143,1.662-.796,3.426-1.551,4.819-.944,1.741-2.36,3.544-4.538,3.262-1.073-.139-2,1.019-2,2,0,1.196.924,1.86,2,2,5.117.664,8.263-4.857,9.542-8.994,1.149-3.716,1.09-9.467-2.542-11.843-2.475-1.619-5.836-1.168-7.983.749-1.925,1.717.912,4.538,2.828,2.828h0Z"/><path class="d" d="M49,51.086c-.46,1.495-.16,4.935,2.673,5.228,3.744-.022,3.943-4.181,2.683-6.137-1.032-1.601-4.066-2.267-5.356.909Z"/><path class="d" d="M78.983,51.086c.46,1.495.16,4.935-2.672,5.228-3.744-.023-3.944-4.181-2.683-6.137,1.032-1.601,4.066-2.267,5.356.909Z"/><path class="d" d="M73.693,28.616c1.803,4.114,3.724,8.343,6.474,11.923,2.811,3.66,6.417,6.606,10.353,8.986,2.209,1.335,4.221-2.122,2.019-3.454-3.526-2.132-6.863-4.773-9.336-8.101-2.548-3.428-4.35-7.48-6.056-11.373-.434-.989-1.881-1.218-2.736-.718-1.021.597-1.153,1.743-.718,2.736h0Z"/><path class="d" d="M74.006,25.689c-5.094,4.603-11.223,8.101-17.281,11.263-6.671,3.482-13.594,6.526-20.732,8.917-2.429.813-1.387,4.678,1.063,3.857,7.459-2.498,14.717-5.682,21.687-9.32,6.368-3.324,12.738-7.052,18.09-11.888,1.914-1.73-.922-4.551-2.828-2.828h0Z"/><path class="d" d="M50.04,83.773c-.132,1.397-.345,2.795-.603,4.175-.109.586-.38,1.072-.534,1.632-.194.708.086,1.405.346,2.053,1.033,2.58,2.572,5.022,3.935,7.439,2.726,4.837,5.715,9.53,9.394,13.705.683.775,2.147.774,2.828,0,3.679-4.175,6.668-8.869,9.394-13.705,1.33-2.36,2.817-4.739,3.853-7.245.263-.637.547-1.28.463-1.981-.068-.572-.414-1.124-.535-1.703-.299-1.433-.501-2.914-.638-4.37-.101-1.075-.847-2-2-2-1.003,0-2.102.918-2,2,.226,2.396.375,5.174,1.481,7.348l-.202-1.541c-.565,1.877-1.749,3.625-2.689,5.336-.963,1.752-1.943,3.496-2.969,5.212-2.067,3.457-4.321,6.795-6.987,9.821h2.828c-2.666-3.026-4.92-6.364-6.987-9.821-1.026-1.716-2.006-3.46-2.969-5.212-.941-1.712-2.124-3.457-2.689-5.336l-.202,1.541c1.105-2.172,1.256-4.953,1.481-7.348.101-1.077-.992-2-2-2-1.166,0-1.898.92-2,2h0Z"/><path class="d" d="M52.241,95.579c3.781,1.647,7.823,2.326,11.941,2.31,3.754-.014,7.672-.399,11.169-1.851.997-.414,1.709-1.326,1.397-2.46-.259-.942-1.456-1.814-2.46-1.397-3.073,1.275-6.39,1.662-9.694,1.704-3.49.045-7.153-.376-10.333-1.761-.989-.431-2.146-.292-2.736.718-.495.847-.278,2.303.718,2.736h0Z"/><path class="d" d="M48.095,82.021c-2.127,1.302-3.379,3.568-4.203,5.852-1.136,3.146-1.606,6.685-2.082,9.986-.239,1.659-.444,3.324-.576,4.995-.114,1.444-.38,3.194.712,4.354,1.166,1.238,2.968.964,4.505.954,1.943-.014,3.887-.027,5.83-.041l-1.414-3.414c-1.035,1.102-1.976,2.311-2.729,3.624-.716,1.249-1.532,2.716-.771,4.14.688,1.288,2.229,1.795,3.46,2.392,1.549.751,3.098,1.502,4.647,2.253,2.307,1.118,4.337-2.33,2.019-3.454-1.185-.575-2.371-1.149-3.556-1.724-.582-.282-1.163-.564-1.745-.846-.291-.141-.583-.279-.873-.423-.125-.058-.248-.119-.369-.185-.217-.142-.212-.093.016.147v1.063c.286-1.503,1.712-3.075,2.729-4.158,1.165-1.24.362-3.427-1.414-3.414-1.458.01-2.915.02-4.373.031-1.105.008-2.788.344-3.79-.074l.883.514c.118.4.159.389.124-.034.013-.282.029-.563.047-.844.027-.432.06-.863.097-1.294.087-1.016.197-2.031.333-3.041.27-2.011.632-4.011,1.047-5.997.54-2.582,1.065-6.437,3.465-7.906,2.192-1.342.185-4.803-2.019-3.454h0Z"/><path class="d" d="M77.87,85.474c2.4,1.469,2.926,5.322,3.465,7.906.414,1.986.775,3.986,1.047,5.997.137,1.01.246,2.026.333,3.041.037.431.07.862.097,1.294.018.281.034.563.047.844-.035.423.006.434.124.034l.883-.514c-.99.413-2.704.082-3.79.074-1.458-.01-2.915-.02-4.373-.031-1.777-.012-2.58,2.173-1.414,3.414,1.018,1.084,2.443,2.652,2.729,4.158v-1.063c.062-.325.268-.171-.135-.067-.291.075-.602.292-.873.423-.654.317-1.309.634-1.963.952-1.185.575-2.371,1.149-3.556,1.724-2.316,1.123-.29,4.573,2.019,3.454,1.476-.716,2.953-1.431,4.429-2.147,1.294-.627,2.944-1.155,3.678-2.497.741-1.355.005-2.754-.666-3.957-.771-1.384-1.751-2.654-2.834-3.807l-1.414,3.414c1.862.013,3.725.026,5.587.039,1.524.011,3.441.329,4.635-.846,1.199-1.18.946-2.939.826-4.46-.132-1.671-.337-3.336-.576-4.995-.466-3.241-.936-6.703-2.017-9.804-.818-2.347-2.09-4.7-4.269-6.034-2.201-1.348-4.213,2.111-2.019,3.454h0Z"/><path class="d" d="M61.992,111.363v107.823c0,2.574,4,2.578,4,0v-107.823c0-2.574-4-2.578-4,0h0Z"/><path class="d" d="M21.22,178.124c-.102,9.588-.314,19.174-.534,28.76-.072,3.123-.151,6.247-.199,9.371-.02,1.322-.172,2.688.808,3.749.679.735,1.584.967,2.539,1.018,6.836.36,13.747.126,20.589.143,11.415.028,22.83.03,34.245.01,8.058-.014,16.121.015,24.178-.123.963-.016,2.079.06,2.953-.389,2.522-1.294,1.68-5.339,1.628-7.676-.201-8.939-.438-17.878-.578-26.819-.042-2.681-.076-5.363-.101-8.044-.024-2.573-4.024-2.579-4,0,.089,9.609.304,19.216.536,28.822.074,3.071.157,6.142.208,9.214.007.435-.056.935.018,1.363.012.07-.024.203.002.275v.064c-.013.498.304.213.952-.856-.033-.015-.091.016-.127.007-.233-.056-.579.02-.819.025-7.157.164-14.323.114-21.48.129-11.071.024-22.142.025-33.214.006-7.81-.014-15.623.005-23.433-.118-.184-.003-1.779-.188-1.874-.049.177-.259.656,1.256.952.806.024-.036-.003-.234.002-.26.031-.159.003-.358.005-.519.006-.525.015-1.049.024-1.573.025-1.4.055-2.799.087-4.198.192-8.661.402-17.322.538-25.985.037-2.384.069-4.768.095-7.152.027-2.575-3.973-2.577-4,0h0Z"/><path class="d" d="M22.767,207.101c21.756-.011,43.512-.071,65.268-.102,5.727-.008,11.454-.015,17.182-.018,2.574-.001,2.578-4.001,0-4-22.165.01-44.331.069-66.496.102-5.318.008-10.636.015-15.954.018-2.574.001-2.578,4.001,0,4h0Z"/><path class="d" d="M82.798,94.158c7.478,2.698,15.172,5.568,21.924,9.828,3.195,2.016,5.683,4.763,7.636,8.001,2.2,3.648,3.201,7.686,4.313,11.756,2.157,7.895,4.267,15.814,5.681,23.882.68,3.879,1.274,7.801,1.64,11.723.343,3.672-.138,7.7-2.081,10.898-2.307,3.797-6.675,6.075-11.054,6.347-4.331.268-8.597-1.745-11.576-4.8-1.8-1.846-4.627.983-2.828,2.828,6.529,6.698,17.629,8.146,25.087,1.999,3.287-2.71,5.457-6.53,6.137-10.734.726-4.49.094-8.828-.525-13.29-1.163-8.387-3.062-16.609-5.238-24.785-2.395-8.998-4.444-18.826-12.063-25.051-3.525-2.88-7.715-4.909-11.838-6.778-4.631-2.098-9.371-3.955-14.152-5.68-2.426-.875-3.47,2.989-1.063,3.857h0Z"/><path class="d" d="M28.702,171.791c-2.564,2.63-5.949,4.396-9.632,4.755-4.043.393-8.347-1.174-11.188-4.057-5.611-5.695-3.916-14.27-2.812-21.365,1.213-7.801,3.088-15.461,5.131-23.081,1.132-4.221,2.064-8.594,3.63-12.68,1.472-3.839,3.908-7.472,7.009-10.187,3.003-2.63,6.984-4.329,10.6-5.917,4.38-1.922,8.885-3.561,13.411-5.104,2.423-.826,1.383-4.691-1.063-3.857-4.414,1.505-8.789,3.125-13.081,4.952-3.793,1.614-7.67,3.348-11.021,5.781-3.612,2.623-6.537,6.387-8.475,10.392-2.059,4.253-3.068,8.911-4.298,13.447-2.255,8.317-4.376,16.668-5.7,25.19-1.286,8.279-2.94,17.806,3.248,24.633,3.446,3.802,8.791,6.163,13.964,5.904,4.96-.249,9.649-2.432,13.106-5.977,1.798-1.844-1.028-4.676-2.828-2.828h0Z"/><path class="h" d="M63.992,2c-17.224,0-36.336,11.639-36.336,31.453,0,3.575-.602,9.477.5,13.4.615.263,1.115.478,1.115.478,2.637,1.132,11.925-2.553,16.613-3.68,4.915-1.181,12.214-2.665,18.109-2.541,5.895-.124,13.194,1.359,18.109,2.541,4.688,1.127,13.976,4.813,16.613,3.68,0,0,.5-.215,1.115-.478,1.102-3.922.5-9.825.5-13.4,0-19.814-18.45-31.453-36.336-31.453Z"/><path class="d" d="M63.992,0c-13.446.055-27.749,6.577-34.503,18.614-1.7,3.029-2.887,6.371-3.42,9.805-.571,3.678-.532,7.497-.573,11.213-.022,2.03.054,4.057.372,6.065.163,1.031.299,2.291,1.278,2.883.509.308,1.303.618,1.878.777,2.763.763,6.169-.466,8.803-1.231,3.202-.929,6.352-2.031,9.602-2.787,4.239-.985,8.541-1.822,12.889-2.126,8.013-.561,16.259.807,23.928,3.108,3.291.987,6.555,2.152,9.931,2.827,2.581.516,6.987.945,7.746-2.417.877-3.884.536-7.937.43-11.878-.099-3.671-.311-7.246-1.425-10.776C96.559,10.242,82.927,1.999,69.093.313,67.4.107,65.698.007,63.992,0c-2.574-.01-2.578,3.99,0,4,15.816.063,32.96,10,34.248,27.122.183,2.434.166,4.906.226,7.347.064,2.616.11,5.304-.567,7.852l.919-1.195c-.203.087-1.406.726-.774.329-.063.039-.59.132-.122.063-.159.023-.327.027-.488.025-.838-.009-1.529-.114-2.337-.28-2.255-.463-4.462-1.155-6.659-1.834-4.701-1.454-9.414-2.65-14.28-3.433-5.887-.947-11.751-1.166-17.671-.385-5.14.677-10.228,1.744-15.182,3.273-2.498.771-4.99,1.588-7.538,2.185-.983.23-1.917.445-2.899.472-.141.004-.28.001-.421.002-.129-.003-.257-.011-.385-.024.237.032.246.026.026-.018-.098-.013-.52-.138.135.08-.359-.119-.71-.305-1.058-.454l.919,1.195c-1.162-4.375-.545-9.28-.415-13.757.119-4.067,1.168-8.08,3.12-11.654,3.814-6.985,10.614-11.968,18.031-14.593,4.24-1.5,8.673-2.299,13.171-2.317C66.565,3.99,66.57-.01,63.992,0Z"/><path class="d" d="M31.27,47.331c.185-1.623,1.527-3.873,2.655-5.391,1.512-2.034,3.422-3.766,5.57-5.104,4.48-2.791,9.63-4.555,14.755-5.717,11.023-2.499,22.955-.577,32.842,4.905,2.475,1.372,4.642,3.08,6.45,5.272,1.356,1.643,2.948,4.166,3.161,6.035.122,1.073.832,2,2,2,.986,0,2.123-.92,2-2-.621-5.464-4.948-10.391-9.325-13.375-4.892-3.334-10.857-5.398-16.592-6.694-6.499-1.469-12.985-1.651-19.537-.426-5.959,1.114-12.004,3.115-17.235,6.22-4.996,2.966-10.058,8.245-10.744,14.275-.122,1.075,1.007,2,2,2,1.183,0,1.877-.922,2-2h0Z"/><path class="e" d="M90.643,162.754c1.454-7.196.933-14.614-1.008-22.134,3.754-7.503,3.555-16.782-.485-24.152-.628-1.146-.86-2.469-.666-3.761.498-3.305.781-6.228.88-9.656.031-1.064-.296-1.632-1.298-2.06-.499-.213-1.074-.095-1.601.036-2.747.681-4.897,1.225-7.693,2.251-.761.279-1.97.989-2.727,1.466-3.166-.864-6.472-1.088-9.75-1.308-3.286.014-6.6.03-9.813.694-.725-.524-1.888-1.308-2.63-1.634-2.726-1.199-4.838-1.877-7.536-2.729-.518-.164-1.085-.318-1.596-.136-1.027.365-1.388.911-1.425,1.975-.117,3.428-.017,6.362.272,9.691.114,1.31-.21,2.621-.913,3.732-5.171,8.186-5.411,19.215-.199,27.477-.282,6.411-.944,21.157-.944,21.157-4.217,1.327-8.536,4.138-11.959,7.242-1.243,1.127-1.527,2.967-.678,4.414.348.593.728,1.229,1.098,1.839,1.001,1.653,3.132,2.179,4.809,1.218,4.579-2.624,10.338-5.083,13.875-5.071-3.622,1.669-7.023,4.071-10.494,7.241-1.411,1.289-1.693,3.413-.701,5.046.253.417.516.847.772,1.264.982,1.598,2.929,2.31,4.707,1.717,2.929-.977,7.107-2.305,9.155-2.4,9.376,2.358,19.894,2.197,27.665-3.831,3.496-2.712,6.012-6.463,7.862-10.427,1.403-3.006,2.395-6.063,3.021-9.161Z"/><path class="g" d="M65.573,127.482c-1.17-.037-3.845.363-4.799.77-1.126.48-2.197,1.131-3.029,2.041-1.074,1.176-1.691,2.785-1.743,4.374-.036,1.081.233,2.189.861,3.07.74,1.038,1.927,1.694,3.162,2.012,1.663.428,8.628.647,10.315.324,1.253-.24,2.478-.82,3.282-1.81.682-.84,1.02-1.928,1.052-3.01.048-1.589-.467-3.234-1.465-4.474-.773-.96-1.801-1.677-2.895-2.227-.927-.466-3.571-1.033-4.741-1.069Z"/><path class="d" d="M40.978,161.734c-2.775.892-5.4,2.228-7.822,3.842-1.232.821-2.418,1.716-3.562,2.656-1.108.911-2.191,1.806-2.761,3.159-.539,1.282-.595,2.751-.093,4.056.491,1.274,1.335,2.737,2.278,3.729.968,1.018,2.327,1.581,3.716,1.669,1.407.089,2.593-.493,3.786-1.154,2.772-1.536,5.663-2.892,8.709-3.788,2.464-.725,1.415-4.586-1.063-3.857-2.367.696-4.658,1.665-6.875,2.742-1.111.539-2.2,1.119-3.277,1.722-.066.037-.545.28-.36.21-.131.05-.273.086-.411.118.037-.009.257-.021.011.004-.11.011-.554,0-.46.011.192.024-.135-.033-.141-.035-.131-.042-.267-.069-.394-.124.306.132-.366-.265-.221-.153.087.068-.299-.306-.244-.24-.215-.263-.553-.907-.793-1.311-.284-.478-.474-.757-.58-1.132-.032-.114-.04-.596.024-.757.104-.258.165-.436.436-.704.449-.443.947-.847,1.432-1.249.879-.728,1.795-1.404,2.742-2.041,2.171-1.459,4.488-2.715,6.984-3.517,1.028-.33,1.692-1.387,1.397-2.46-.278-1.01-1.428-1.729-2.46-1.397h0Z"/><path class="d" d="M55.563,169.038c-6.115,1.134-11.541,4.058-16.336,7.952-1.249,1.014-2.724,2.066-3.544,3.481-.805,1.389-1.028,3.13-.58,4.675.849,2.928,3.365,5.626,6.558,5.632,1.711.003,3.418-.82,5.031-1.313,1.578-.482,3.172-.942,4.798-1.231,1.064-.189,1.664-1.488,1.397-2.46-.308-1.122-1.393-1.587-2.46-1.397-2.458.437-4.857,1.224-7.223,2.003-.925.304-1.646.602-2.479.165-.745-.391-1.348-1.446-1.682-2.212-.297-.681-.228-1.479.246-2.081.821-1.042,2.105-1.911,3.139-2.734,1.975-1.572,4.124-2.955,6.385-4.08,2.469-1.227,5.107-2.043,7.814-2.545,1.063-.197,1.666-1.483,1.397-2.46-.307-1.116-1.394-1.595-2.46-1.397h0Z"/><path class="d" d="M42.994,139.381c-2.591-5.332-2.996-11.563-1.356-17.239.39-1.349.883-2.661,1.511-3.918.701-1.404,1.838-2.709,2.263-4.226.435-1.551.099-3.188-.004-4.764-.105-1.618-.161-3.239-.162-4.861,0-.9-.078-1.877.048-2.768.036-.258-.033-.024-.156.026.095-.039.139-.107.248-.052.756.378,1.728.536,2.535.801.813.267,1.623.544,2.425.841,1.507.558,2.825,1.261,4.239,1.992,1.753.907,3.328.611,5.194.44,3.565-.328,7.139-.256,10.695.115,1.627.17,3.305.724,4.934.713,1.72-.012,3.021-.971,4.58-1.52,1.452-.511,2.926-.952,4.414-1.347.855-.227,1.724-.501,2.594-.659l.403-.091c-.059-.001-.045.008.041.029-.181-.006-.013-.679-.076.158-.124,1.642-.142,3.289-.295,4.931-.166,1.778-.48,3.531-.673,5.304-.183,1.676.368,2.96,1.141,4.401.757,1.413,1.348,2.889,1.797,4.428.848,2.908,1.139,5.919.912,8.939s-1.11,5.818-2.337,8.557c-.672,1.5.317,3.604.624,5.169.346,1.761.608,3.533.762,5.322.581,6.728-.266,13.539-2.936,19.774-2.724,6.36-7.149,11.815-13.838,14.165-6.363,2.235-13.305,1.82-19.767.244-2.5-.61-3.567,3.247-1.063,3.857,9.184,2.239,19.65,2.303,27.784-3.138,8.63-5.772,12.896-16.688,13.817-26.684.564-6.117-.218-12.298-1.728-18.231l-.202,1.541c3.934-8.03,3.93-17.628-.182-25.6-.484-.939-.911-1.581-.785-2.673.14-1.216.35-2.424.491-3.64.264-2.273.616-4.712.474-7.003-.132-2.136-1.842-3.945-4.084-3.835s-4.699,1.035-6.829,1.713c-1.137.362-2.286.733-3.361,1.255-1.111.54-1.624.664-2.857.439-2.457-.45-4.977-.694-7.471-.819-2.459-.123-4.993-.027-7.441.231-.978.103-1.968.41-2.888-.039-1.132-.552-2.187-1.17-3.364-1.651-2.129-.87-4.377-1.742-6.615-2.286-2.123-.516-4.417.515-5.009,2.715-.275,1.024-.183,2.207-.192,3.259-.011,1.257.011,2.515.064,3.771.047,1.118.121,2.234.213,3.349.1,1.22.197,1.946-.463,2.99-5.219,8.263-5.79,18.814-1.523,27.594,1.125,2.315,4.575.289,3.454-2.019h0Z"/><path class="d" d="M56.913,116.773c-1.718-.242-3.2,1.232-2.92,2.987.174,1.091,1.087,1.976,2.181,2.13,1.718.242,3.2-1.232,2.92-2.987-.174-1.091-1.087-1.976-2.181-2.13Z"/><path class="d" d="M75.396,117.354c-1.718-.242-3.2,1.232-2.92,2.987.174,1.091,1.087,1.976,2.181,2.13,1.718.242,3.2-1.232,2.92-2.987-.174-1.091-1.087-1.976-2.181-2.13Z"/><path class="d" d="M65.573,125.482c-4.152-.058-8.853,1.525-10.693,5.555-1.032,2.26-1.259,4.96-.051,7.207,1.016,1.89,3.065,3.171,5.154,3.53,2.986.513,6.186.574,9.206.412,1.919-.103,3.735-.625,5.229-1.889,2.038-1.724,2.558-4.553,2.068-7.068-1-5.129-6.141-7.514-10.912-7.747-2.573-.126-2.566,3.874,0,4,.576.028.937.092,1.678.248.701.147,1.384.336,2.065.555.101.032.355.18-.011-.007.182.093.363.188.541.289.292.167.595.344.864.546.678.508,1.253,1.195,1.581,1.98.509,1.219.65,2.915-.275,3.976-.458.524-1.113.805-1.775.976-.158.041-.321.065-.478.107-.242.064.572-.038.149-.02-.214.009-.429.037-.643.049-2.454.14-4.956.043-7.403-.177-.233-.021-.464-.052-.697-.071-.329-.027.307.068-.186-.027-.611-.119-1.181-.284-1.712-.623-1.228-.785-1.472-2.22-1.128-3.568.855-3.352,4.439-4.276,7.432-4.234,2.575.036,2.576-3.964,0-4Z"/><path class="d" d="M62.959,131.761c-1.543-.465-2.997.84-2.703,2.424.138.745.708,1.38,1.434,1.599,1.543.465,2.997-.84,2.703-2.424-.138-.745-.708-1.38-1.434-1.599Z"/><path class="d" d="M68.987,131.95c-1.543-.465-2.997.84-2.703,2.424.138.745.708,1.38,1.434,1.599,1.543.465,2.997-.84,2.703-2.424-.138-.745-.708-1.38-1.434-1.599Z"/><path class="g" d="M57.475,162.286c-.273.88-.593,1.751-.945,2.452-2.22,4.43-5.451,7.649-10.832,7.22-6.192-.494-12.3-2.892-16.581-6.467-.253-.211-.901-.964-.901-.964-1.979-5.778-1.321-13.383.121-18.294,1.582-1.706,7.727-6.999,10.83-8.926,1.802-1.119,5.126.514,5.288,2.629.03.396.058.783.085,1.167.128,1.805,1.776,3.109,3.564,2.834,2.665-.409,7.182-2.017,9.372.922,2.424,3.253-.478,6.547-1.006,8.142-.627,1.893,2.351,2.169,1.882,5.672-.13.792-.444,2.213-.878,3.612Z"/><path class="g" d="M86.364,164.318c-4.308-3.522-7.699-2.564-10.22-2.221-7.433-.371-8.862,5.342-8.123,11.551-17.387,10.519,10.487,29.73,26.08,5.221,2.392-5.585,4.385-12.407,1.306-17.779-1.075-1.875-2.99-2.589-4.514-2.141-2.295.675-4.264,3.487-4.243,6.184"/><path class="d" d="M55.546,161.754c-.762,2.38-2.031,4.736-3.932,6.407-1.877,1.65-4.148,1.982-6.564,1.738-3.04-.308-6.125-1.137-8.906-2.404-2.354-1.072-4.802-2.405-6.513-4.382l.514.883c-1.813-5.48-1.457-11.733.121-17.23l-.514.883c2.285-2.427,4.969-4.58,7.603-6.612.838-.647,2.286-2.165,3.397-2.085.494.036,1.202.365,1.506.758.506.654.255,1.793.471,2.579.569,2.077,2.572,3.617,4.715,3.682,1.804.055,3.57-.706,5.367-.817,1.562-.096,3.258.204,3.585,2.039.288,1.617-.913,3.13-1.541,4.518-.861,1.905-.262,3.255.954,4.782.254.319.582.795.594,1.479.022,1.245-.504,2.609-.857,3.783-.743,2.471,3.117,3.526,3.857,1.063.627-2.085,1.402-4.486.734-6.652-.257-.832-.706-1.511-1.24-2.183-.166-.209-.336-.415-.509-.619.265.312-.022-.031-.009-.032-.111-.204-.115-.196-.01.025l.017.203c.015.173-.034.081.066-.142.168-.374.384-.73.571-1.094.473-.918.934-1.881,1.174-2.89.55-2.306,0-4.786-1.729-6.475-1.459-1.426-3.511-1.91-5.499-1.815-1.748.083-3.471.782-5.197.827-.543.014-.994-.217-1.186-.748-.36-.992-.11-2.062-.603-3.062-.909-1.843-2.969-3-4.966-3.187-1.828-.171-3.186.766-4.588,1.788-1.644,1.198-3.233,2.476-4.79,3.784-1.287,1.081-2.561,2.183-3.78,3.341-.497.472-1.059.946-1.349,1.574-.429.934-.588,2.072-.782,3.077-.893,4.619-1.073,9.46-.102,14.082.231,1.102.449,2.436,1.177,3.32.565.685,1.211,1.23,1.914,1.768,1.846,1.413,3.854,2.568,5.985,3.495,2.662,1.159,5.438,1.995,8.31,2.433,2.496.381,5.055.597,7.479-.275,4.598-1.654,7.478-6.069,8.911-10.546.787-2.457-3.074-3.509-3.857-1.063Z"/><path class="d" d="M87.778,162.904c-2.564-2.032-5.444-3.35-8.775-3.168-1.078.059-2.195.317-3.232.347-1.446.042-2.877.13-4.239.666-5.238,2.062-6.074,7.932-5.511,12.898l.991-1.727c-4.041,2.482-7.52,6.664-6.225,11.693,1.119,4.344,5.279,7.255,9.384,8.45,5.352,1.557,11.201.488,15.939-2.34,3.153-1.882,5.78-4.467,7.995-7.374,2.693-3.535,4.143-8.061,4.7-12.45.56-4.414-.269-10.953-5.097-12.74-4.886-1.809-8.946,3.599-9.058,7.973-.066,2.575,3.934,2.574,4,0,.052-2.048,2.547-6.02,4.702-3.513,2.264,2.634,1.8,7.117,1.06,10.207-.44,1.837-1.061,3.627-1.768,5.377-.588,1.456-1.672,2.775-2.685,3.968-1.813,2.135-3.907,4.005-6.356,5.38-3.67,2.062-7.956,2.763-11.76,1.818-1.81-.45-3.07-.986-4.621-2.158-.075-.056.087.081-.168-.143-.157-.138-.316-.275-.467-.419-.295-.281-.572-.58-.834-.892-.245-.291.112.176-.101-.134-.11-.16-.22-.321-.322-.487-.1-.164-.193-.331-.284-.499-.045-.084-.258-.552-.173-.347.081.194-.109-.317-.145-.436-.054-.177-.099-.355-.142-.535-.039-.162-.09-.7-.053-.246-.017-.21-.032-.42-.032-.631,0-.186.013-.371.024-.557.014-.233-.023.114-.025.132.019-.134.042-.269.073-.401.044-.189.088-.377.145-.563.031-.102.254-.695.097-.326.817-1.916,2.337-3.201,4.214-4.354.552-.339,1.069-1.038.991-1.727-.347-3.064-.565-7.767,2.832-9.141.947-.383,1.917-.403,2.918-.424.912-.019,1.851-.228,2.691-.306,2.439-.228,4.555.425,6.487,1.955.846.67,2.003.826,2.828,0,.696-.696.851-2.154,0-2.828h0Z"/></g></svg>