<svg xmlns="http://www.w3.org/2000/svg" width="192.772" height="260.487" viewBox="0 0 192.772 260.487"><defs><style>.a{fill:#a98a75;}.b{fill:#211715;}</style></defs><path class="a" d="M41.308,214.952a47.175,47.175,0,0,0,2.487,7.621l3.3,7.776c5.288,6.341,13.736,9.608,22.884,8.848h9.1a5.4,5.4,0,0,1-.856,2.836c-.419.65-.823,1.262-1.054,1.642a7.433,7.433,0,0,0-1.08,4.754,10.889,10.889,0,0,0,2.637,5.286,6.155,6.155,0,0,0,2.318,1.8l23.66.408c2.3-3.263,3.26-5.924,3.035-11.41a51.151,51.151,0,0,0-.687-5.315h15.437a51.151,51.151,0,0,0-.687,5.315c-.226,5.486.735,8.147,3.035,11.41l23.66-.408a6.163,6.163,0,0,0,2.318-1.8,10.889,10.889,0,0,0,2.637-5.286,7.446,7.446,0,0,0-1.08-4.754c-.231-.38-.635-.992-1.054-1.642a5.4,5.4,0,0,1-.856-2.836h8.216c9.148.76,17.6-2.507,22.884-8.849l3.3-7.775a50.977,50.977,0,0,0-2.784-44.614c3.35-6.518,3.129-17.489-2.629-26.8l-2.387-3.846s-2.267-3.653-4.371-7.049a48.959,48.959,0,0,0-4.027-20.679,27.292,27.292,0,0,1-2.21-6.657c-.881-6.342-5.356-17.276-8.817-20.767-1-1.01-1.626-1.744-3.343-3.274a25.233,25.233,0,0,0,3.011-4.75l4.051-.034a12.667,12.667,0,0,0,8.6-2.3c3.583-2.84,4.512-5.987,5.118-10.9a51.806,51.806,0,0,0-1.365-18.175c-1.647-7.32-4.975-13.706-7.784-20.105a17.879,17.879,0,0,0-3.058-8.79q-.262-.364-.521-.708c-2.451-3.242-4.914-5.152-10.856-6.905a14.121,14.121,0,0,0-4.83-6.76,15.308,15.308,0,0,0-6.313-3.03l-7.632-1.855-1.029-.224a98.648,98.648,0,0,0-18.226-1.909,79.022,79.022,0,0,0-9.925.5L89.212,6.43a23.716,23.716,0,0,0-9.778,4.693,22.067,22.067,0,0,0-5.824,6.729,16.342,16.342,0,0,0-6.918,5.981,17.8,17.8,0,0,0-3.052,8.79c-2.815,6.4-6.143,12.785-7.79,20.105A51.782,51.782,0,0,0,54.485,70.9c.606,4.909,1.535,8.056,5.118,10.9a12.667,12.667,0,0,0,8.6,2.3l4.052.036A24.958,24.958,0,0,0,74.9,88.418a52.586,52.586,0,0,0-3.878,3.744c-3.461,3.491-7.936,14.425-8.817,20.767a27.292,27.292,0,0,1-2.21,6.657,48.964,48.964,0,0,0-4.027,20.68c-2.1,3.4-4.371,7.048-4.371,7.048l-2.387,3.846a31.96,31.96,0,0,0-4.8,17.3h0c-1.7-3.619-3.4-7.237-3.4-7.237-2.727-5.811-8.727-6.2-12.591-5.691a7.407,7.407,0,0,0-5.79,3.751,7.577,7.577,0,0,1-8.9,3.267,8.216,8.216,0,0,0-8.559,2.47A9.9,9.9,0,0,0,3.175,168.6a19.062,19.062,0,0,0-.372,9.226c.493,3.2,1.958,6.628,4.944,7.836A13.106,13.106,0,0,0,6.623,197a8.881,8.881,0,0,0,2.162,3.58,4.769,4.769,0,0,0,3.848,1.357h0a5.581,5.581,0,0,1,5.719,2.865l.673,1.248A6.847,6.847,0,0,0,22.3,209a14.236,14.236,0,0,0,11.95-.741l5.745-2.926,0-.007a51.19,51.19,0,0,0,1.312,9.625"/><path class="b" d="M118,71.009c-1.964.607-6.479.226-6.853-3.48.043-4.9,5.5-5.174,8.065-3.531C121.308,65.343,122.171,69.311,118,71.009Z"/><path class="b" d="M90.912,51.5c-.8,2.589-.3,8.536,4.585,9.029,6.456-.056,6.817-7.249,4.652-10.625C98.377,47.135,93.148,46,90.912,51.5Z"/><path class="b" d="M139.6,51.5c.8,2.589.3,8.537-4.585,9.03-6.455-.056-6.817-7.25-4.652-10.626C132.134,47.135,137.363,46,139.6,51.5Z"/><path class="b" d="M105.311,76.86a8.721,8.721,0,0,0,6.451,3.412,6.584,6.584,0,0,0,6.459-3.54h-4.145a6.519,6.519,0,0,0,6.322,3.536,8.648,8.648,0,0,0,6.394-3.47,2.415,2.415,0,0,0-.861-3.283,2.459,2.459,0,0,0-3.284.861c.156-.2,0-.018-.086.059-.119.106-.227.224-.351.325.246-.2-.1.055-.2.116-.138.085-.281.159-.423.237-.345.188.275-.091-.091.05-.151.058-.3.107-.458.152s-.309.084-.465.117c-.095.021-.6.061-.177.036a6.725,6.725,0,0,1-.909,0c.452.035-.292-.072-.455-.144.231.1-.071-.06-.12-.1.193.156-.193-.165-.23-.2a3.267,3.267,0,0,1-.463-.713,2.416,2.416,0,0,0-4.145,0,3.355,3.355,0,0,1-.463.713c-.044.044-.337.293-.26.235.161-.122-.383.194-.09.066-.139.061-.293.078-.435.128-.418.149.2.009-.078.023a9.867,9.867,0,0,1-.988,0c-.2-.011-.284-.056-.041,0-.152-.032-.3-.06-.454-.1-.189-.048-.375-.1-.56-.167-.042-.014-.449-.184-.256-.095.232.109-.292-.165-.338-.191-.132-.078-.263-.16-.388-.248.393.276-.572-.628-.269-.231a2.48,2.48,0,0,0-3.284-.861,2.416,2.416,0,0,0-.861,3.284Z"/><path class="b" d="M113.749,71.728v2.8a2.464,2.464,0,0,0,2.4,2.4,2.421,2.421,0,0,0,1.7-.7,2.492,2.492,0,0,0,.7-1.7v-2.8a2.672,2.672,0,0,0-.7-1.7,2.678,2.678,0,0,0-1.7-.7,2.43,2.43,0,0,0-1.7.7,2.493,2.493,0,0,0-.7,1.7Z"/><path class="b" d="M97.5,6.358a81.865,81.865,0,0,1,33.551.307c3.012.645,4.3-3.981,1.276-4.628a87.753,87.753,0,0,0-36.1-.308C93.2,2.366,94.478,6.994,97.5,6.358Z"/><path class="b" d="M66.145,31.566a16.385,16.385,0,0,1,3.667-7.88,13.285,13.285,0,0,1,2.673-2.466,16.528,16.528,0,0,1,1.606-.942,4.527,4.527,0,0,0,2.017-1.966A22.011,22.011,0,0,1,89.841,8.744c3-.747,1.727-5.377-1.276-4.628A26.836,26.836,0,0,0,71.529,16.641l.861-.861A20.169,20.169,0,0,0,61.516,30.29a2.467,2.467,0,0,0,1.676,2.953,2.422,2.422,0,0,0,2.953-1.677Z"/><path class="b" d="M152.491,12.593a18.112,18.112,0,0,0-11.508-8.477,2.436,2.436,0,0,0-2.952,1.676,2.441,2.441,0,0,0,1.676,2.952c.517.128,1.031.269,1.536.436.254.084.506.173.756.269.121.047.243.105.366.146-.116-.038-.43-.191-.143-.056a15.776,15.776,0,0,1,2.636,1.543c.055.04.35.273.085.059-.289-.233.081.066.142.115.2.166.405.335.6.509.372.328.731.673,1.07,1.035q.243.259.473.531c.086.1.168.206.252.309.187.226-.282-.4-.033-.037.316.463.623.923.9,1.413a2.4,2.4,0,0,0,4.145-2.423Z"/><path class="b" d="M168.033,30.29a20.089,20.089,0,0,0-10.874-14.51,2.456,2.456,0,0,0-3.284.861,2.431,2.431,0,0,0,.861,3.284,18.844,18.844,0,0,1,1.813.966q.4.248.794.52c.126.088.249.181.374.271.239.171-.325-.28.014.017a20.547,20.547,0,0,1,2.506,2.594c.164.2.09.119-.026-.037.116.156.234.31.349.467.2.279.405.56.594.851a15.555,15.555,0,0,1,1.015,1.842c.081.172.162.344.234.519-.156-.38.031.1.058.173q.206.542.376,1.095a19.529,19.529,0,0,1,.567,2.363,2.412,2.412,0,0,0,2.952,1.677,2.467,2.467,0,0,0,1.677-2.953Z"/><path class="b" d="M166.408,39.506a70.728,70.728,0,0,1,6.223,20.6,43.55,43.55,0,0,1-.018,11.257c-.35,2.494-.887,5.14-2.591,7.086a9.955,9.955,0,0,1-8.668,3.257,2.415,2.415,0,0,0-2.4,2.4,2.455,2.455,0,0,0,2.4,2.4,14.466,14.466,0,0,0,15.424-11.34c1.867-7.95.942-16.371-1.026-24.206a83.5,83.5,0,0,0-5.2-13.875,2.418,2.418,0,0,0-3.284-.861,2.459,2.459,0,0,0-.861,3.284Z"/><path class="b" d="M68.676,59.66a21.462,21.462,0,0,0-1.1,15.777A2.4,2.4,0,0,0,72.2,74.161c-.173-.529-.328-1.062-.455-1.6-.073-.309-.137-.621-.194-.933-.015-.085-.118-.724-.059-.3a17.824,17.824,0,0,1-.122-3.448q.023-.417.064-.832c.015-.158.033-.316.053-.474-.028.2-.028.221,0,.048.109-.546.2-1.093.331-1.634s.293-1.073.475-1.6q.137-.395.291-.781c-.148.375.2-.443.236-.518A2.456,2.456,0,0,0,71.96,58.8a2.431,2.431,0,0,0-3.284.861Z"/><path class="b" d="M155.579,61.416c.035.075.384.893.236.518.087.221.172.444.251.669q.279.786.485,1.594a12.181,12.181,0,0,1,.475,3.008,19.607,19.607,0,0,1-.108,3.33q-.032.261,0-.048c-.024.157-.05.314-.078.47-.049.273-.1.546-.167.817-.132.581-.3,1.153-.481,1.72a2.418,2.418,0,0,0,1.676,2.952,2.454,2.454,0,0,0,2.952-1.676,21.462,21.462,0,0,0-1.1-15.777,2.411,2.411,0,0,0-3.283-.861,2.466,2.466,0,0,0-.861,3.284Z"/><path class="b" d="M155.6,82.161a23.968,23.968,0,0,1-5.689,7.948,13.445,13.445,0,0,1-8.768,3.835,2.457,2.457,0,0,0-2.4,2.4,2.421,2.421,0,0,0,2.4,2.4,20.858,20.858,0,0,0,6.942-1.615,17.643,17.643,0,0,0,5.026-3.442,29.716,29.716,0,0,0,7.117-10.25,2.413,2.413,0,0,0-1.676-2.952,2.462,2.462,0,0,0-2.952,1.676Z"/><path class="b" d="M69.324,83.437a29.732,29.732,0,0,0,7.118,10.25,17.6,17.6,0,0,0,5.026,3.442,20.913,20.913,0,0,0,6.942,1.615,2.4,2.4,0,1,0,0-4.8,13.461,13.461,0,0,1-8.769-3.835,23.983,23.983,0,0,1-5.688-7.948A2.481,2.481,0,0,0,71,80.485a2.415,2.415,0,0,0-1.677,2.952Z"/><path class="b" d="M59,37.083A92.143,92.143,0,0,0,54.28,49.176a67.327,67.327,0,0,0-2.257,11.765A46.16,46.16,0,0,0,52.492,73.8a15.713,15.713,0,0,0,4.213,8.647A14.509,14.509,0,0,0,68.194,86.5a2.47,2.47,0,0,0,2.4-2.4,2.415,2.415,0,0,0-2.4-2.4,9.935,9.935,0,0,1-7.849-2.418,11.479,11.479,0,0,1-3.224-6.766c-1.232-6.958-.327-14.181,1.478-20.958a78.72,78.72,0,0,1,4.542-12.056,2.475,2.475,0,0,0-.861-3.284A2.42,2.42,0,0,0,59,37.083Z"/><path class="b" d="M33.03,206.188a14.252,14.252,0,0,1-3.505,1.2c-.1.02-.96.151-.675.119-.351.04-.7.063-1.057.075a12.756,12.756,0,0,1-1.983-.079c-.169-.018-.176-.02-.021,0q-.264-.043-.525-.1-.528-.108-1.045-.26c-.35-.1-.693-.221-1.034-.348.428.159-.144-.073-.234-.122-.2-.109-.389-.236-.583-.356-.219-.158-.225-.159-.021,0q-.169-.14-.332-.291a5.932,5.932,0,0,1-.629-.668c.233.3-.252-.432-.3-.51a2.4,2.4,0,1,0-4.144,2.422c1.707,3.012,4.821,4.5,8.15,4.947a17.686,17.686,0,0,0,10.356-1.873,2.414,2.414,0,0,0,.861-3.283,2.457,2.457,0,0,0-3.283-.861Z"/><path class="b" d="M14.262,160.206a10.576,10.576,0,0,0-9.6,2.014,13.047,13.047,0,0,0-4.45,8.634A22.988,22.988,0,0,0,1.1,181.048a10.811,10.811,0,0,0,6.087,6.962,2.414,2.414,0,0,0,2.952-1.676,2.464,2.464,0,0,0-1.676-2.953c-1.616-.676-2.485-2.678-2.933-4.249a19.487,19.487,0,0,1-.646-7.238,8.873,8.873,0,0,1,2.621-5.824,5.806,5.806,0,0,1,5.48-1.236c2.972.865,4.241-3.766,1.276-4.628Z"/><path class="b" d="M5.637,184.484A15.55,15.55,0,0,0,3.905,196.3c.968,4,4.025,8.557,8.719,8.034a2.471,2.471,0,0,0,2.4-2.4,2.415,2.415,0,0,0-2.4-2.4c-.174.02-.348.027-.523.04l-.261-.006c.162.031.16.029-.008-.006a3.645,3.645,0,0,1-.506-.141c-.384-.137.208.121-.154-.072a2.511,2.511,0,0,1-.7-.469c-.125-.124-.247-.249-.368-.376-.03-.032-.258-.311-.118-.128a8.576,8.576,0,0,1-1.565-3.851c-.034-.167-.064-.335-.093-.5-.072-.419.028.3-.019-.128q-.065-.579-.079-1.162c-.008-.347,0-.695.014-1.041.009-.174.025-.347.037-.521.056-.811-.043.188.029-.27a9.829,9.829,0,0,1,1.471-3.992,2.4,2.4,0,1,0-4.145-2.423Z"/><path class="b" d="M23.848,162.126a10.067,10.067,0,0,1,1.633-2.678c.167-.175.343-.334.52-.5.5-.454-.312.177.238-.171.184-.117.369-.229.562-.331.1-.054.675-.28.2-.107a9.1,9.1,0,0,1,1.21-.353c.207-.044.416-.077.624-.113-.3.052-.253.029.021,0a19.416,19.416,0,0,1,2.35-.1c.385.009.769.03,1.152.067.168.016.641.1.214.022.215.038.429.073.642.118a11.793,11.793,0,0,1,1.278.34c.212.069.422.144.629.227-.439-.175.222.112.251.127a7.237,7.237,0,0,1,3.555,3.759,2.422,2.422,0,0,0,3.283.861,2.451,2.451,0,0,0,.861-3.284c-2.239-4.62-6.875-6.923-11.865-7.037a14.749,14.749,0,0,0-6.251,1.059A10.786,10.786,0,0,0,19.7,159.7a2.474,2.474,0,0,0,.861,3.284,2.42,2.42,0,0,0,3.284-.861Z"/><path class="b" d="M27.55,174.869l.1-.045-.573.242a3.8,3.8,0,0,1,.832-.23l-.638.086a4.137,4.137,0,0,1,1.072,0l-.638-.086a5.081,5.081,0,0,1,1.161.329l-.573-.242a5.905,5.905,0,0,1,1.161.676l-.485-.375a6.085,6.085,0,0,1,1.047,1.038l-.375-.485a9.284,9.284,0,0,1,1.161,2.039l-.242-.574a25.29,25.29,0,0,1,.991,3.1,2.4,2.4,0,1,0,4.628-1.276c-.652-2.415-1.436-4.956-3.265-6.763a7.874,7.874,0,0,0-3.4-1.989,6.293,6.293,0,0,0-1.925-.232,6.592,6.592,0,0,0-2.464.633,2.4,2.4,0,0,0-1.1,1.434,2.454,2.454,0,0,0,.242,1.85,2.425,2.425,0,0,0,1.434,1.1,2.783,2.783,0,0,0,1.85-.242Z"/><path class="b" d="M130.923,254.355c.018.039.035.078.052.118l-.242-.573a4.782,4.782,0,0,1,.3,1.148l-.086-.638a7.134,7.134,0,0,1-.008,1.8l.086-.638a7.381,7.381,0,0,1-.5,1.875,2.4,2.4,0,0,0,.242,1.849,2.4,2.4,0,0,0,3.284.861l.486-.375a2.4,2.4,0,0,0,.617-1.059,9.177,9.177,0,0,0,.65-3.274,9.675,9.675,0,0,0-.165-1.86,6.68,6.68,0,0,0-.566-1.657,2.408,2.408,0,0,0-1.434-1.1,2.451,2.451,0,0,0-1.849.242,2.417,2.417,0,0,0-1.1,1.434l-.086.638a2.379,2.379,0,0,0,.328,1.212Z"/><path class="b" d="M139.818,253.134a4.449,4.449,0,0,1,.28,1.071l-.085-.638a9.2,9.2,0,0,1-.053,2.373l.086-.638a8.976,8.976,0,0,1-.3,1.6l.242-.573a.508.508,0,0,1-.077.136,2.4,2.4,0,0,0,2.71,3.525,2.669,2.669,0,0,0,1.434-1.1,4.56,4.56,0,0,0,.553-1.853,20.03,20.03,0,0,0,.245-2,7.378,7.378,0,0,0-.4-3.177,2.687,2.687,0,0,0-1.1-1.435,2.4,2.4,0,0,0-3.284.861,2.323,2.323,0,0,0-.242,1.85Z"/><path class="b" d="M123.631,202.935c-.618,4.189-1.58,8.319-2.111,12.521a96.162,96.162,0,0,0-.613,13.847c.059,3.085,4.86,3.095,4.8,0a96.92,96.92,0,0,1,.573-13.522c.469-3.859,1.41-7.705,1.98-11.57a2.479,2.479,0,0,0-1.676-2.952,2.418,2.418,0,0,0-2.953,1.676Z"/><path class="b" d="M156.757,185.08c.363,9.633-.453,19.212-3.936,28.272A2.419,2.419,0,0,0,154.5,216.3a2.455,2.455,0,0,0,2.952-1.676c3.618-9.412,4.484-19.541,4.107-29.548-.116-3.079-4.916-3.094-4.8,0Z"/><path class="b" d="M94.482,251.932a6.726,6.726,0,0,0-.56,1.621,9.427,9.427,0,0,0-.171,1.9,9.133,9.133,0,0,0,.65,3.274,2.677,2.677,0,0,0,1.1,1.434,2.448,2.448,0,0,0,1.849.242,2.422,2.422,0,0,0,1.434-1.1,2.305,2.305,0,0,0,.242-1.849,7.379,7.379,0,0,1-.5-1.875l.086.638a7.134,7.134,0,0,1-.008-1.8l-.086.638a4.735,4.735,0,0,1,.3-1.148l-.242.573c.016-.04.034-.079.052-.118a1.778,1.778,0,0,0,.285-.893,1.823,1.823,0,0,0-.043-.957,2.448,2.448,0,0,0-1.1-1.434,2.423,2.423,0,0,0-1.849-.242,2.339,2.339,0,0,0-1.434,1.1Z"/><path class="b" d="M85.1,251.858a7.362,7.362,0,0,0-.4,3.177,20.03,20.03,0,0,0,.245,2,4.574,4.574,0,0,0,.552,1.853,2.558,2.558,0,0,0,1.435,1.1,2.452,2.452,0,0,0,1.849-.241,2.426,2.426,0,0,0,1.1-1.435,2.388,2.388,0,0,0-.242-1.849.482.482,0,0,1-.077-.136l.242.573a8.888,8.888,0,0,1-.3-1.6l.086.638a9.2,9.2,0,0,1-.053-2.373l-.086.638a4.5,4.5,0,0,1,.28-1.071,2.407,2.407,0,0,0-.242-1.85,2.4,2.4,0,0,0-3.283-.861l-.486.376a2.387,2.387,0,0,0-.617,1.059Z"/><path class="b" d="M124.276,170.923a124.212,124.212,0,0,0-1.455,13.113,49.318,49.318,0,0,0,1.213,13.476c.709,3,5.338,1.733,4.629-1.276-1.877-7.964-.94-16.036.242-24.037a2.479,2.479,0,0,0-1.676-2.952,2.418,2.418,0,0,0-2.953,1.676Z"/><path class="b" d="M100.644,172.2c1.182,8,2.119,16.073.242,24.037-.708,3,3.919,4.286,4.628,1.276a49.237,49.237,0,0,0,1.213-13.476,124.182,124.182,0,0,0-1.455-13.113,2.416,2.416,0,0,0-2.952-1.676,2.462,2.462,0,0,0-1.676,2.952Z"/><path class="b" d="M101.289,204.211c.687,4.67,1.707,9.22,2.064,13.85a112.265,112.265,0,0,1,.357,11.484c-.078,3.09,4.722,3.088,4.8,0a110.718,110.718,0,0,0-.387-11.86c-.407-4.965-1.481-9.828-2.206-14.75a2.416,2.416,0,0,0-2.952-1.676,2.461,2.461,0,0,0-1.676,2.952Z"/><path class="b" d="M67.992,185.08c-.378,10.007.489,20.136,4.107,29.548a2.47,2.47,0,0,0,2.952,1.676,2.418,2.418,0,0,0,1.676-2.952c-3.482-9.06-4.3-18.639-3.935-28.272.116-3.089-4.684-3.084-4.8,0Z"/><path class="b" d="M183.135,185.671c4.325,11.041,7.966,24.547.767,35.209-1.733,2.567,2.423,4.972,4.145,2.422,7.924-11.735,4.511-26.668-.284-38.907a2.472,2.472,0,0,0-2.952-1.676,2.416,2.416,0,0,0-1.676,2.952Z"/><path class="b" d="M175.109,138.87a51.891,51.891,0,0,0-1.675-12.8c-1.029-3.879-2.843-7.421-4.056-11.223-.538-1.687-.7-3.449-1.1-5.167a50.56,50.56,0,0,0-1.449-4.932,59.8,59.8,0,0,0-4.281-9.768,30.527,30.527,0,0,0-6.411-7.669c-2.287-2.068-5.692,1.317-3.395,3.394a25.692,25.692,0,0,1,5.195,5.891,49.434,49.434,0,0,1,4.024,8.745,66.463,66.463,0,0,1,2.337,9.09c.787,3.805,2.821,7.307,3.964,11.018a46.734,46.734,0,0,1,2.048,13.418c.029,3.087,4.829,3.095,4.8,0Z"/><path class="b" d="M185.388,176.248a30.436,30.436,0,0,0-.195-18.166c-1.337-4.369-3.668-8.138-6.052-11.979-1.625-2.62-5.779-.213-4.144,2.422,2.085,3.36,4.228,6.638,5.445,10.44a26.022,26.022,0,0,1,.317,16.007c-.971,2.94,3.663,4.2,4.629,1.276Z"/><path class="b" d="M179.941,227.478c-5.273,6.286-13.219,8.849-21.259,8.228a2.421,2.421,0,0,0-2.4,2.4,2.447,2.447,0,0,0,2.4,2.4c9.164.708,18.65-2.478,24.654-9.634a2.467,2.467,0,0,0,0-3.394,2.422,2.422,0,0,0-3.4,0Z"/><path class="b" d="M40.9,184.4c-4.8,12.239-8.208,27.172-.284,38.907,1.72,2.547,5.88.147,4.145-2.422-7.2-10.661-3.558-24.168.768-35.209a2.419,2.419,0,0,0-1.677-2.952A2.455,2.455,0,0,0,40.9,184.4Z"/><path class="b" d="M58.355,138.87a46.516,46.516,0,0,1,1.607-11.9c1.024-3.737,2.784-7.165,3.953-10.839.505-1.59.665-3.239,1.03-4.86.348-1.541.792-3.06,1.289-4.559a53.843,53.843,0,0,1,3.872-9.022,25.38,25.38,0,0,1,5.817-6.977c2.3-2.076-1.107-5.463-3.394-3.394a30.6,30.6,0,0,0-5.79,6.605,54.241,54.241,0,0,0-4.414,9.465,66.094,66.094,0,0,0-2.587,9.774c-.813,3.93-2.925,7.547-4.078,11.393a51.608,51.608,0,0,0-2.1,14.319c-.029,3.09,4.771,3.093,4.8,0Z"/><path class="b" d="M47.905,174.972a26.022,26.022,0,0,1,.317-16.007c1.217-3.8,3.36-7.08,5.445-10.44,1.634-2.632-2.517-5.045-4.144-2.422-2.384,3.841-4.715,7.61-6.052,11.979a30.436,30.436,0,0,0-.195,18.166c.965,2.919,5.6,1.669,4.629-1.276Z"/><path class="b" d="M45.328,230.872c6,7.156,15.49,10.342,24.654,9.634a2.459,2.459,0,0,0,2.4-2.4,2.42,2.42,0,0,0-2.4-2.4c-8.04.621-15.986-1.942-21.259-8.228a2.421,2.421,0,0,0-3.395,0,2.453,2.453,0,0,0,0,3.394Z"/><path class="b" d="M150.191,219.968a72.259,72.259,0,0,1-.444,9.91c-.188,1.538-.466,3.067-.792,4.582a20.308,20.308,0,0,0-.891,4.905,9.013,9.013,0,0,0,1.671,4.629,6.518,6.518,0,0,1,1.373,3.611,7.316,7.316,0,0,1-3.818,5.837l1.211-.328-20.684.357-2.976.051,2.072,1.189a13.236,13.236,0,0,1-2.634-6.384,34.589,34.589,0,0,1,.631-9.129,2.475,2.475,0,0,0-1.677-2.953,2.418,2.418,0,0,0-2.952,1.677c-.616,3.864-1.2,7.651-.66,11.563a16.447,16.447,0,0,0,1.41,4.728c.676,1.455,1.774,3.813,3.491,4.066a17.517,17.517,0,0,0,2.8,0l6.019-.1,13.075-.226a7.468,7.468,0,0,0,3.626-.536,12.078,12.078,0,0,0,5.87-9.809c.007-2.513-1.095-4.534-2.39-6.591-1.242-1.974-.173-4.047.247-6.154a70.16,70.16,0,0,0,1.226-14.892c-.049-3.085-4.849-3.095-4.8,0Z"/><path class="b" d="M104.639,239.2a34.674,34.674,0,0,1,.631,9.129,13.238,13.238,0,0,1-2.634,6.384l2.072-1.189-20.683-.356-2.977-.052,1.211.328a7.317,7.317,0,0,1-3.819-5.837,6.548,6.548,0,0,1,1.374-3.611,9.1,9.1,0,0,0,1.67-4.629,19.742,19.742,0,0,0-.89-4.905c-.327-1.515-.6-3.044-.792-4.582a71.787,71.787,0,0,1-.445-9.91c.049-3.09-4.751-3.091-4.8,0a72.372,72.372,0,0,0,.906,13.151q.258,1.536.6,3.056a10.618,10.618,0,0,1,.622,3.19,4.984,4.984,0,0,1-1.015,2.206,14.1,14.1,0,0,0-1.446,2.768c-1.527,4.121.288,8.432,3.162,11.478a6.3,6.3,0,0,0,3.718,2.1c.347.022.7.012,1.046.018l12.225.211c3.377.058,6.791.269,10.167.175,1.662-.046,2.429-1.362,3.2-2.651a16.163,16.163,0,0,0,1.97-4.884c.915-4.307.24-8.582-.442-12.862a2.418,2.418,0,0,0-2.953-1.677,2.459,2.459,0,0,0-1.676,2.953Z"/></svg>