<?xml version="1.0" encoding="UTF-8"?><svg id="b" xmlns="http://www.w3.org/2000/svg" width="274.78" height="100.428" viewBox="0 0 274.78 100.428"><defs><style>.d{fill:#d9d9d9;}.e{fill:#fff;}.f{fill:#211715;}.g{fill:#b3b3b3;}</style></defs><g id="c"><path class="e" d="M229.676,54.556H2.933c.908,3.801,3.001,7.463,6.315,10.615,15.367,14.617,32.66,21.133,51.951,26.409,15.948,4.361,32.772,6.415,49.302,6.415,41.113,0,76.805-10.608,107.05-30.911h0c5.18-3.368,9.571-8.325,12.125-12.528Z"/><path class="g" d="M229.83,54.314c1.811-3.043,1.666-6.842-.257-9.817-2.286-3.536-5.873-7.196-12.042-11.205C187.289,12.998,151.604,2.395,110.501,2.395c-10.102,0-20.314.767-30.369,2.359-6.398,1.013-12.732,2.36-18.934,4.056-19.287,5.275-37.036,12.17-51.946,26.4-5.817,5.551-7.916,12.664-6.32,19.346h226.743c.048-.079.107-.163.154-.242Z"/><path class="d" d="M262.669,34.602c2.415-3.984,5.442-7.814,8.663-11.322,2.883-3.139-.573-8.192-4.724-7.227-17.526,4.076-34.138,9.908-49.077,17.24-.027-.018-.053-.036-.08-.054,6.218,4.031,9.827,7.707,12.122,11.259,1.922,2.974,2.068,6.773.257,9.817-2.531,4.252-7.001,9.338-12.279,12.769,14.935,7.351,31.54,13.18,49.057,17.254,4.152.966,7.621-4.101,4.724-7.227-7.317-7.896-13.628-17.595-14.053-26.915.238-5.217,2.32-10.529,5.39-15.593Z"/><path class="f" d="M79.494,2.439c-11.729,1.874-23.312,4.879-34.49,8.902-10.191,3.668-20.045,8.399-28.761,14.879-4.391,3.265-8.959,6.827-12.144,11.33C1.308,41.498-.246,46.423.032,51.271c.646,11.251,10.026,18.644,18.574,24.619,8.729,6.102,18.497,10.518,28.552,13.945,11.176,3.808,22.684,6.708,34.368,8.425,23.55,3.463,47.846,2.737,71.192-1.89,20.937-4.15,41.164-11.858,59.404-22.966,2.245-1.367,4.457-2.786,6.64-4.248h-2.423c12.543,6.156,25.686,11.065,39.141,14.816,3.459.965,6.962,1.994,10.489,2.679,2.703.525,5.404-.278,7.171-2.458,1.724-2.126,2.22-5.078.833-7.522-.707-1.245-1.87-2.254-2.801-3.327-1.187-1.368-2.333-2.771-3.407-4.23-3.707-5.039-7.088-10.851-7.937-17.154-.78-5.787,2.265-11.892,5.226-16.659,1.768-2.846,3.785-5.522,5.966-8.064,1.874-2.183,4.065-4.111,3.724-7.255-.298-2.746-2.171-5.051-4.741-6.023-2.957-1.118-6.419.327-9.311,1.066-15.28,3.902-30.203,9.26-44.373,16.194h2.423c-14.708-9.846-30.852-17.479-47.784-22.637C152.974,3.105,134.175.436,115.398.045c-12.022-.25-24.023.53-35.904,2.394-1.282.201-1.992,1.804-1.676,2.952.376,1.366,1.667,1.878,2.952,1.676,22.724-3.566,46.364-3.02,68.959,1.248,20.071,3.792,39.449,10.805,57.105,21.105,2.148,1.253,4.269,2.551,6.362,3.894,1.032.662,2.041,1.478,3.124,2.049,1.639.865,3.428-.497,4.905-1.197,5.029-2.383,10.155-4.552,15.359-6.522,5.552-2.101,11.187-3.983,16.882-5.657,2.82-.829,5.655-1.607,8.503-2.334,1.435-.366,2.873-.72,4.314-1.061.867-.205,1.541-.392,2.276-.055.565.259,1.016.735,1.27,1.301.203.451.257.954-.002,1.454-.48.928-1.521,1.76-2.2,2.551-.994,1.159-1.953,2.346-2.884,3.556-3.411,4.429-6.379,9.238-8.228,14.539-.84,2.408-1.379,4.913-1.584,7.456-.199,2.459.389,5.107,1.071,7.46,1.543,5.32,4.355,10.241,7.621,14.682,1.681,2.287,3.482,4.487,5.389,6.589.588.649,1.005,1.093.99,1.71-.013.509-.272,1.061-.737,1.514-1.396,1.363-3.578.311-5.381-.134-2.859-.706-5.705-1.463-8.537-2.271-11.087-3.163-21.97-7.095-32.431-11.95-1.253-.582-2.493-1.189-3.741-1.783-.858-.408-1.596-.712-2.547-.323-.655.268-1.251.766-1.844,1.155-2.138,1.403-4.306,2.76-6.503,4.07-4.329,2.582-8.769,4.977-13.304,7.177-9.169,4.448-18.732,8.051-28.532,10.84-21.005,5.979-43.092,8.246-64.891,7.262-12.091-.546-24.123-2.207-35.872-5.126-10.071-2.501-20.158-5.579-29.593-9.936-9.381-4.332-18.463-10.054-25.744-17.45-3.014-3.062-5.209-7.089-5.5-11.432-.294-4.383,1.162-8.662,3.867-12.107,3.144-4.003,7.561-7.316,11.693-10.237,4.197-2.967,8.648-5.566,13.26-7.833,9.277-4.561,19.186-7.753,29.155-10.414,5.914-1.579,11.91-2.826,17.953-3.791,1.281-.205,1.993-1.801,1.676-2.952-.375-1.364-1.668-1.882-2.952-1.676Z"/><path class="f" d="M52.975,40.403c-.661-1.106-1.691-2.147-2.875-2.684-1.036-.47-1.679-.645-2.824-.758-.749-.074-1.508.025-2.245.151-1.334.228-2.785,1.047-3.662,2.081-.744.878-1.134,1.535-1.533,2.61-.255.687-.343,1.451-.353,2.18,0,1.331.351,2.773,1.12,3.878.369.53.763,1.061,1.269,1.467.876.701,1.483,1.071,2.558,1.456,1.281.459,2.924.407,4.234.1,1.235-.289,2.574-1.059,3.399-2.03.421-.496.839-1.004,1.108-1.598.477-1.051.665-1.745.768-2.915.116-1.325-.285-2.803-.963-3.938Z"/><path class="f" d="M3.731,56.956h14.878c1.255,0,2.458-1.104,2.4-2.4s-1.055-2.4-2.4-2.4H3.731c-1.255,0-2.458,1.104-2.4,2.4s1.055,2.4,2.4,2.4h0Z"/><path class="g" d="M136.363,39.188c-1.726.056-3.342.209-4.587.307-13.755,1.074-25.718,3.866-43.159,8.483-.271,4.086-.918,8.147-1.934,12.112,5.009,1.521,9.21,2.203,14.633,2.694,11.42,1.034,21.217,1.567,31.425-1.962,6.512-2.251,14.371-7.363,14.892-14.923.093-1.345-.094-2.779-.912-3.851-2-2.621-6.459-2.988-10.358-2.86Z"/><path class="f" d="M89.358,50.266c8.586-2.27,17.199-4.501,25.93-6.148,3.721-.701,7.462-1.294,11.225-1.721,3.983-.451,8.071-.944,12.083-.819,1.622.051,3.367.192,4.853.899,1.592.758,1.977,2.046,1.76,3.761-.407,3.223-2.56,5.863-4.994,7.861-5.983,4.914-14.334,6.624-21.872,6.978-5.208.244-10.423-.119-15.61-.571-5.088-.443-10.066-1.166-14.976-2.605-2.97-.87-4.239,3.76-1.276,4.629,4.848,1.421,9.808,2.188,14.832,2.651s10.056.858,15.096.76c8.808-.171,18.37-1.89,25.62-7.22,3.311-2.434,6.179-5.55,7.425-9.546.637-2.042.889-4.462.22-6.524-.719-2.214-2.437-3.756-4.534-4.647-4.062-1.726-8.733-1.282-13.017-.938-4.32.347-8.622.845-12.904,1.519-10.52,1.656-20.852,4.332-31.138,7.051-2.984.789-1.718,5.42,1.276,4.629h0Z"/><path class="f" d="M82.557,24.058c5.191,14.182,4.995,29.94-.309,44.063-1.481,3.944-3.415,7.706-5.68,11.256-1.667,2.612,2.486,5.022,4.145,2.423,8.656-13.564,11.972-30.102,9.737-45.989-.626-4.448-1.72-8.812-3.263-13.029-.445-1.217-1.629-2.04-2.952-1.676-1.172.322-2.124,1.729-1.676,2.952h0Z"/><path class="f" d="M216.319,35.365c3.005,1.967,5.87,4.136,8.34,6.757,1.824,1.935,3.863,4.276,4.032,7.062.195,3.2-2.091,5.961-4.034,8.283-2.411,2.881-5.178,5.474-8.317,7.544-2.568,1.693-.166,5.852,2.423,4.145,3.701-2.441,7.015-5.461,9.796-8.913,2.579-3.201,5.151-6.737,4.933-11.059-.2-3.948-2.422-7.131-4.988-9.969-2.827-3.126-6.248-5.694-9.761-7.995-2.592-1.697-5,2.458-2.423,4.145h0Z"/></g></svg>