<?xml version="1.0" encoding="UTF-8"?><svg id="b" xmlns="http://www.w3.org/2000/svg" width="252.431" height="206.663" viewBox="0 0 252.431 206.663"><defs><style>.d{fill:#211715;}.e{fill:#f2635f;}</style></defs><g id="c"><path class="e" d="M196.778,57.768c9.192,2.103,19.083-1.1,23.985-9.498,8.352-14.308-3.988-32.2-15.545-40.536-2.566-1.851-5.318-3.499-8.353-4.438-.887-.275-2.731-1.421-3.597-.651-.329.293-.545.711-.631,1.143-1.311,6.588-1.718,14.312-2.228,21.671-.073,1.055-.701,2.008-1.998,2.592-.353.159-.751.175-1.138.189-5.663.205-11.325.438-16.99.584-1.43.037-2.427,1.489-1.863,2.804,3.772,8.795,9.772,16.888,18.047,21.896,3.153,1.909,6.682,3.414,10.31,4.244Z"/><path class="e" d="M183.715,99.403c5.322-3.129,15.936-9.777,22.389-15.833,3.135-2.942,3.34-7.45,1.718-11.422-1.088-2.664.38-5.686,3.193-6.293,2.389-.516,4.983-1.357,7.089-2.729,2.072-1.35,3.725-2.98,4.981-4.487,1.964-2.356,5.641-2.074,7.333.484,5.736,8.674,4.123,17.317.131,24.002-4.126,6.908-13.987,13.7-20.923,17.778-6.548,3.85-12.55,6.9-20.507,11.333"/><path class="e" d="M55.653,57.768c-9.192,2.103-19.083-1.1-23.985-9.498-8.352-14.308,3.988-32.2,15.545-40.536,2.566-1.851,5.318-3.499,8.353-4.438.887-.275,2.731-1.421,3.597-.651.329.293.545.711.631,1.143,1.311,6.588,1.718,14.312,2.228,21.671.073,1.055.701,2.008,1.998,2.592.353.159.751.175,1.138.189,5.663.205,11.325.438,16.99.584,1.43.037,2.427,1.489,1.863,2.804-3.772,8.795-9.772,16.888-18.047,21.896-3.153,1.909-6.682,3.414-10.31,4.244Z"/><path class="e" d="M68.715,99.403c-5.322-3.129-15.936-9.777-22.389-15.833-3.135-2.942-3.34-7.45-1.718-11.422,1.088-2.664-.38-5.686-3.193-6.293-2.389-.516-4.983-1.357-7.089-2.729-2.072-1.35-3.725-2.98-4.981-4.487-1.964-2.356-5.641-2.074-7.333.484-5.736,8.674-4.123,17.317-.131,24.002,4.126,6.908,13.987,13.7,20.923,17.778,6.548,3.85,12.55,6.9,20.507,11.333"/><path class="d" d="M196.14,60.083c5.745,1.271,11.706.789,17.051-1.728s9.449-7.228,11.447-12.78c4.112-11.428-2.194-23.736-9.671-32.188-3.907-4.416-8.703-8.558-14.076-11.067-.773-.361-1.563-.695-2.364-.99-.555-.204-1.111-.374-1.4-.49-1.394-.563-2.787-1.143-4.297-.646-1.872.617-2.432,2.468-2.742,4.204-.321,1.793-.571,3.599-.792,5.407-.428,3.507-.696,7.032-.94,10.555-.064.93-.127,1.859-.189,2.789-.042.631.109,1.736-.157,2.31.075-.162-.288.272-.472.352-.681.295-1.941.091-2.69.119-3.721.138-7.442.282-11.164.398-1.683.052-3.672-.198-5.235.537-1.545.725-2.583,2.277-2.581,4.002.001,1.768,1.201,3.646,1.979,5.19.771,1.531,1.61,3.027,2.522,4.479,1.855,2.955,4.002,5.758,6.425,8.269,5.249,5.441,11.963,9.533,19.348,11.279,3.004.71,4.286-3.917,1.276-4.629-11.416-2.699-20.025-11.264-25.247-21.469-.3-.586-.59-1.176-.869-1.772-.095-.203-.561-1.504-.667-1.528.284.064-.193.761-.348.54.14.201,2.655-.074,2.913-.082,3.398-.103,6.796-.231,10.194-.358,3.089-.115,6.771.278,8.636-2.763.748-1.219.783-2.56.877-3.946.115-1.704.228-3.408.35-5.111.231-3.206.492-6.414.897-9.603.175-1.374.389-2.744.641-4.106.009-.049.2-.856.141-.88,1.021.415-.798.29-.767.422.021.086.854.325,1.053.408,1.276.532,2.588.922,3.829,1.541,1.419.707,2.77,1.54,4.074,2.439,1.975,1.361,3.811,2.899,5.539,4.562,6.911,6.652,13.388,16.338,12.339,26.38-.549,5.253-3.631,10.128-8.098,12.921-4.597,2.874-10.238,3.568-15.488,2.407-3.01-.666-4.296,3.961-1.276,4.629Z"/><path class="d" d="M184.927,101.476c7.612-4.483,15.211-9.361,21.823-15.248,1.812-1.614,3.264-3.388,3.98-5.75s.602-4.96-.035-7.319c-.408-1.512-1.595-3.395-.002-4.591.65-.488,1.599-.534,2.373-.74,1.374-.366,2.709-.848,4.008-1.428,2.413-1.079,4.575-2.742,6.415-4.628,1.141-1.169,2.095-2.85,3.785-2.232.777.284,1.173.924,1.596,1.62.761,1.252,1.418,2.561,1.89,3.95.767,2.258,1.093,4.573.962,6.954-.512,9.343-7.755,16.121-14.849,21.259-9.052,6.556-19.226,11.42-28.966,16.841-2.7,1.502-.282,5.65,2.423,4.145,9.279-5.164,18.94-9.821,27.663-15.915,8.166-5.705,16.343-12.885,18.155-23.205.977-5.566-.043-11.15-2.888-16.038-1.423-2.445-3.318-4.253-6.254-4.499-2.52-.212-4.508,1.054-6.108,2.86-1.773,2.002-3.868,3.757-6.359,4.788-2.403.994-5.254,1.047-7.242,2.875-1.815,1.669-2.562,4.246-2.073,6.641.234,1.149.777,2.208,1.019,3.363.213,1.019.259,2.119.073,3.145-.469,2.593-2.448,4.11-4.362,5.718-2.156,1.812-4.418,3.493-6.721,5.113-4.125,2.902-8.385,5.616-12.731,8.175-2.66,1.567-.248,5.717,2.423,4.145h0Z"/><path class="d" d="M55.015,55.454c-9.509,2.103-20.011-2.393-22.929-12.175-2.876-9.639,2.75-19.785,9.019-26.775,3.439-3.835,7.47-7.317,12.083-9.662,1.214-.617,2.486-.994,3.736-1.516.245-.102,1.086-.284,1.232-.477.216-.284.09.162-.056-.111-.339-.472-.546-.576-.62-.312.041.207.081.414.12.621.565,2.995.912,6.024,1.188,9.058.302,3.319.514,6.645.74,9.97.094,1.381.114,2.736.877,3.946.82,1.301,2.219,2.254,3.727,2.514,1.596.275,3.293.189,4.909.249,1.78.066,3.559.133,5.339.197,1.618.058,3.236.112,4.854.162.786.024,1.644.132,2.428.069,1.213-.097.193.151.182-.108-.005-.117-.767-.188-.045-.419-.189.061-.746,1.697-.836,1.885-.341.713-.695,1.419-1.066,2.117-.742,1.398-1.542,2.765-2.403,4.092-1.613,2.484-3.449,4.799-5.524,6.913-4.656,4.743-10.464,8.227-16.954,9.762-3.005.71-1.733,5.34,1.276,4.629,12.956-3.063,22.951-13.023,28.645-24.735.646-1.329,1.565-2.825,1.628-4.331.074-1.775-.997-3.41-2.58-4.153-1.565-.735-3.549-.484-5.235-.537-1.942-.06-3.884-.128-5.825-.199-1.78-.065-3.559-.132-5.339-.198-.759-.028-1.842.132-2.561-.076-.307-.089-.587-.413-.597-.432-.217-.428-.121-1.669-.162-2.273-.063-.93-.125-1.859-.189-2.789-.129-1.856-.264-3.712-.426-5.566-.304-3.478-.691-6.958-1.305-10.396-.312-1.747-.872-3.572-2.742-4.204-1.508-.51-2.909.085-4.297.646-2.513,1.015-5.685,2.335-8.242,4.078-2.424,1.652-4.712,3.518-6.818,5.559-8.157,7.905-15.151,19.374-13.425,31.155.952,6.498,4.966,12.369,10.582,15.741,5.656,3.397,12.515,4.119,18.89,2.709,3.015-.667,1.739-5.295-1.276-4.629Z"/><path class="d" d="M69.927,97.331c-3.775-2.223-7.481-4.567-11.097-7.042-2.076-1.421-4.129-2.882-6.112-4.43-1.83-1.429-4.075-2.952-5.478-4.826-1.199-1.602-1.44-3.745-1.092-5.668.212-1.175.761-2.235,1.023-3.387.295-1.3.252-2.696-.193-3.957-.865-2.451-2.845-3.984-5.324-4.57-2.662-.63-5.178-1.555-7.344-3.271-1.922-1.523-3.289-3.905-5.561-4.92-2.194-.981-4.843-.792-6.826.606-2.404,1.695-3.764,4.878-4.736,7.559-.904,2.495-1.349,5.207-1.305,7.861.083,5.005,1.832,10.067,4.657,14.185,2.889,4.212,6.786,7.593,10.817,10.673,9.473,7.24,20.369,12.389,30.746,18.165,2.702,1.504,5.125-2.641,2.423-4.145-8.712-4.848-17.747-9.249-26.042-14.806-7.391-4.952-15.138-11.061-17.301-20.137-1.138-4.777-.242-9.655,2.257-13.854.807-1.356,1.976-2.511,3.452-1.695.776.428,1.309,1.326,1.913,1.956.981,1.022,2.055,1.938,3.19,2.784,2.136,1.593,4.605,2.661,7.168,3.363,1.558.427,3.45.612,3.403,2.593-.021.88-.537,1.757-.779,2.607-.349,1.227-.549,2.528-.574,3.804-.046,2.405.604,4.908,2.028,6.868,1.496,2.06,3.642,3.673,5.622,5.245,2.238,1.776,4.541,3.468,6.891,5.094,3.82,2.643,7.747,5.134,11.75,7.491,2.668,1.571,5.085-2.576,2.423-4.145h0Z"/><path class="d" d="M204.303,125.858c14.981-1.245,29.993-2.37,45.038-2.095,4.12.075,4.12-6.325,0-6.4-15.044-.274-30.056.85-45.038,2.095-1.722.143-3.2,1.368-3.2,3.2,0,1.62,1.468,3.344,3.2,3.2h0Z"/><path class="d" d="M201.067,151.08c7.385-.842,14.88-.745,22.292-.363,3.428.177,6.852.432,10.267.783.68.07,1.36.144,2.04.223.362.042.724.085,1.086.13.264.033,1.16.151.417.05,1.045.143,2.09.296,3.127.489.215.04.43.078.643.125.225.05.446.105.666.172l.321.109c-.198-.086-.199-.081-.002.015.147.075.289.158.432.241.812.471-.129-.163.268.174.164.14.313.294.465.446.073.073.454.598.202.224.098.145.581,1.085.406.65.155.386.278.82.329,1.235-.074-.598-.077.926-.042.672.043-.309-.06.229-.062.233-.075.244-.138.487-.225.726-.588,1.625.662,3.504,2.235,3.936,1.779.489,3.346-.604,3.936-2.235,1.533-4.236-.368-8.958-4.008-11.412-2.481-1.673-5.833-1.836-8.718-2.204-7.463-.952-15.017-1.399-22.538-1.444-4.517-.027-9.045.11-13.536.622-1.717.196-3.2,1.331-3.2,3.2,0,1.578,1.472,3.397,3.2,3.2h0Z"/><path class="d" d="M51.364,144.68c-8.052-.918-16.238-.742-24.313-.249-3.528.216-7.052.51-10.562.924-2.873.339-6.095.5-8.76,1.719-4.413,2.018-6.833,7.435-5.165,12.044.588,1.624,2.176,2.719,3.936,2.235,1.568-.431,2.826-2.303,2.235-3.936-.106-.294-.188-.588-.261-.891-.129-.531.006.399-.025-.136-.009-.163,0-.328-.014-.49-.018-.215.235-1.234.376-1.454.323-.507.4-.766,1.12-1.322-.303.234.589-.323.725-.385-.069.032-.34.128.011.006.271-.094.547-.164.826-.227.933-.209,1.888-.344,2.834-.482.272-.04.544-.077.817-.115.462-.064-.586.074-.109.015.128-.016.256-.033.384-.049.733-.093,1.466-.179,2.201-.259,7.086-.781,14.232-1.179,21.36-1.171,4.134.004,8.275.156,12.385.625,1.72.196,3.2-1.611,3.2-3.2,0-1.893-1.475-3.003-3.2-3.2h0Z"/><path class="d" d="M188.738,175.339c10.201-1.224,20.618-1.215,30.792.275,1.19.174,2.376.366,3.56.577.631.112,1.262.229,1.891.351.235.046.474.084.708.139.078.018.923.329.398.075.175.085.35.189.51.298-.124-.085-.387-.365.02.052.093.095.348.46.043.011.08.117.152.239.221.363.236.425-.122-.455.02.01.055.181.104.362.148.545.114.472-.002-.494-.019-.006-.01.294-.074.594.027.147-.043.19-.089.38-.154.563.065-.185.266-.39-.055.053-.235.324-.432.607-.729.981-.782.985-1.571,1.965-2.368,2.938-1.644,2.007-3.32,3.987-5.027,5.941-3.777,4.321-7.711,8.502-11.782,12.548-2.926,2.907,1.599,7.433,4.525,4.525,4.015-3.99,7.897-8.112,11.627-12.37,1.865-2.129,3.692-4.29,5.481-6.483,1.65-2.023,3.881-4.129,4.585-6.711.596-2.184.181-4.664-1.141-6.505-1.575-2.193-3.718-2.99-6.281-3.466-5.794-1.077-11.673-1.762-17.56-2.013-6.49-.277-12.991-.012-19.439.761-1.716.206-3.2,1.323-3.2,3.2,0,1.57,1.472,3.407,3.2,3.2h0Z"/><path class="d" d="M48.128,119.458c-14.981-1.245-29.993-2.37-45.038-2.095-4.113.075-4.127,6.475,0,6.4,15.044-.274,30.056.85,45.038,2.095,1.725.143,3.2-1.573,3.2-3.2,0-1.85-1.471-3.056-3.2-3.2h0Z"/><path class="d" d="M63.693,168.939c-11.61-1.393-23.338-1.049-34.869.875-2.601.434-5.301.705-7.326,2.569-1.628,1.498-2.548,3.725-2.494,5.931.069,2.851,1.825,4.796,3.517,6.907,1.77,2.209,3.578,4.386,5.424,6.531,4.154,4.827,8.501,9.484,13.018,13.973,2.925,2.906,7.453-1.617,4.525-4.525-7.061-7.016-13.951-14.554-19.906-22.406-.02-.027-.226-.469-.1-.161.138.338-.055-.233-.075-.315-.122-.496.047.497-.004-.004-.01-.096.008-.699-.025-.284s.305-.89.15-.551c-.152.332.066-.098.09-.124.641-.677-.465.428.196-.25.088-.091.454-.349.02-.052.16-.11.336-.214.51-.298-.5.242.471-.088.634-.122,1.333-.279,2.678-.508,4.022-.727,5.017-.817,10.095-1.261,15.176-1.396,5.852-.155,11.705.131,17.517.828,1.719.206,3.2-1.618,3.2-3.2,0-1.901-1.476-2.993-3.2-3.2h0Z"/><path class="e" d="M126.215,179.708c-29.264,0-35.92-2.191-44.729-6.761-4.386-2.275-8.213-5.688-11.438-9.432-4.833-5.611-7.128-11.505-8.558-17.611-3.72-15.889-.451-29.562,6.058-42.556,6.467-12.91,14.392-20.286,30.111-27.778,9.225-4.508,15.449-5.047,18.056-6.167.05-.022.1-.043.149-.064,6.613-2.849,14.089-2.849,20.701,0,.049.021.099.043.149.064,2.607,1.119,8.83,1.659,18.056,6.167,15.719,7.492,23.644,14.867,30.111,27.778,6.509,12.994,9.778,26.667,6.058,42.556-1.43,6.107-3.724,12-8.558,17.611-3.225,3.743-7.052,7.157-11.438,9.432-8.809,4.57-15.465,6.761-44.729,6.761Z"/><path class="d" d="M126.215,177.308c-7.128-.003-14.272-.08-21.382-.633-1.258-.098-2.515-.213-3.77-.351-1.359-.15-1.792-.204-3.024-.396-1.87-.291-3.731-.655-5.562-1.136-1.538-.404-3.053-.891-4.536-1.467-.329-.128-.655-.261-.982-.395.615.253-.384-.169-.609-.27-.686-.308-1.365-.632-2.039-.965-6.065-3.002-11.327-7.522-15.068-13.193-4.211-6.383-6.209-14.181-6.766-21.747s.548-15.094,2.971-22.29c3.981-11.821,10.644-22.693,21.039-29.842,5.833-4.012,12.384-7.444,19.071-9.772,2.611-.909,5.278-1.599,7.956-2.276,2.472-.626,4.65-1.701,7.13-2.309,3.716-.912,7.645-.886,11.353.053,2.435.617,4.587,1.667,7.028,2.283,2.704.683,5.395,1.387,8.028,2.313,3.64,1.28,7.125,2.953,10.541,4.74,5.521,2.888,10.814,6.259,15.253,10.666,4.115,4.086,7.282,8.919,9.883,14.082,3.336,6.621,5.889,13.716,6.904,21.086,1.06,7.704.34,15.629-1.88,23.069-2.233,7.485-6.66,13.844-12.682,18.8-2.168,1.785-4.588,3.173-7.1,4.409-.65.32-1.305.63-1.966.926-.201.09-1.151.491-.536.238-.377.155-.754.308-1.135.454-3.242,1.244-6.63,2.034-10.058,2.561-.271.042-.542.081-.813.12-.5.073-.056.011-.447.061-.593.076-1.187.146-1.781.211-1.261.138-2.524.251-3.788.348-3.125.24-6.257.378-9.39.47-3.946.115-7.895.15-11.843.152-3.089.001-3.094,4.801,0,4.8,7.372-.003,14.766-.08,22.116-.692,4.481-.373,8.998-.926,13.344-2.115,10.615-2.903,20.089-9.595,26.012-18.927,4.431-6.982,6.463-15.447,7.065-23.62.587-7.963-.599-16.012-3.143-23.566-2.281-6.775-5.419-13.484-9.557-19.334-3.638-5.144-8.112-9.475-13.268-13.084-6.226-4.359-13.293-7.965-20.457-10.484-2.705-.951-5.47-1.662-8.246-2.367-.833-.212-1.656-.438-2.467-.722-.374-.131.119.054.16.071-.26-.105-.517-.22-.776-.327-.473-.197-.95-.384-1.433-.555-1.027-.364-2.077-.661-3.141-.894-4.164-.909-8.479-.898-12.637.046-.992.225-1.97.509-2.929.847-.483.171-.96.359-1.433.555-.259.108-.516.222-.776.327.613-.247.225-.087.09-.045-.869.268-1.731.528-2.614.751-6.915,1.745-13.386,4.227-19.716,7.536-5.914,3.092-11.596,6.792-16.335,11.527-4.431,4.428-7.91,9.698-10.696,15.288-3.594,7.211-6.286,14.835-7.345,22.844-1.081,8.173-.37,16.563,1.952,24.472,2.344,7.98,6.877,14.965,13.157,20.42,3.875,3.366,8.323,5.809,13.062,7.712,8.714,3.5,18.512,3.888,27.778,4.171,4.075.125,8.152.162,12.228.163,3.089.001,3.094-4.799,0-4.8Z"/><path class="d" d="M109.585,55.954c-.661-1.106-1.691-2.147-2.875-2.684-1.036-.47-1.679-.645-2.824-.758-.749-.074-1.508.025-2.245.151-1.334.228-2.785,1.047-3.662,2.081-.744.878-1.134,1.535-1.533,2.61-.255.687-.343,1.451-.353,2.18,0,1.331.351,2.773,1.12,3.878.369.53.763,1.061,1.269,1.467.876.701,1.483,1.071,2.558,1.456,1.281.459,2.924.407,4.234.1,1.235-.289,2.574-1.059,3.399-2.03.421-.496.839-1.004,1.108-1.598.477-1.051.665-1.745.768-2.915.116-1.325-.285-2.803-.963-3.938Z"/><path class="d" d="M155.355,55.954c-.661-1.106-1.691-2.147-2.875-2.684-1.036-.47-1.679-.645-2.824-.758-.749-.074-1.508.025-2.245.151-1.334.228-2.785,1.047-3.662,2.081-.744.878-1.134,1.535-1.533,2.61-.255.687-.343,1.451-.353,2.18,0,1.331.351,2.773,1.12,3.878.369.53.763,1.061,1.269,1.467.876.701,1.483,1.071,2.558,1.456,1.281.459,2.924.407,4.234.1,1.235-.289,2.574-1.059,3.399-2.03.421-.496.839-1.004,1.108-1.598.477-1.051.665-1.745.768-2.915.116-1.325-.285-2.803-.963-3.938Z"/></g></svg>