<svg xmlns="http://www.w3.org/2000/svg" width="162.878" height="240.843" viewBox="0 0 162.878 240.843"><defs><style>.a{fill:#febe69;}.b{fill:#7a7473;}.c{fill:#fff;}.d{fill:#211715;}</style></defs><path class="a" d="M102.536,234.015a31.545,31.545,0,0,1-7.109-7.942c4.824-.346,10.121-.872,13.335-1.455,6.536-1.053,11.857-2.368,16.73-5.068,3.22,2.545,5.66,4.595,6.273,8.81a7.222,7.222,0,0,1-.97,5.075c-.763,1.021-3.331,3.332-8.489,4.374a33.733,33.733,0,0,1-11.78.206,22.617,22.617,0,0,1-5.189-2.042A34.017,34.017,0,0,1,102.536,234.015Z"/><path class="a" d="M30.955,229.2c.014-.288.041-.57.08-.841.614-4.224,3.051-6.274,6.3-8.824a51.59,51.59,0,0,0,15.189,4.875c3.1.488,9.391,1.154,14.886,1.6a30.72,30.72,0,0,1-9.944,9.961,22.549,22.549,0,0,1-5.2,2.042,33.674,33.674,0,0,1-11.77-.206c-5.158-1.042-7.726-3.353-8.49-4.374A6.768,6.768,0,0,1,30.955,229.2Z"/><path class="b" d="M108,8.483A56.058,56.058,0,0,0,81.665,2.4c-17.234,0-29.6,5.719-36.927,13.848A48.982,48.982,0,0,0,32,45.569c-.734,10.766,1.405,21.576,4.978,31.762a126.081,126.081,0,0,0-34.56,88.146,15.9,15.9,0,0,0,1.083,6.53c.939,2.021,2.9,3.724,5.127,3.682,3.858-.051,5.746-4.6,6.86-8.293a108.208,108.208,0,0,1,3.835-10.633,140.148,140.148,0,0,0-.124,29.449c.616,6.6,2.156,14.3,5.231,20.39a28.967,28.967,0,0,0,5.652,7.648c5.829,5.539,12.737,8.088,20.62,9.7-1.313.589,19.453,2.544,25.346,2.541,1.243,0,3.956-.007,5.2-.013s3.956.012,5.2.013c5.493,0,23.546-1.449,26.05-2.624,7.72-1.616,14.5-4.173,20.229-9.62a28.967,28.967,0,0,0,5.652-7.648c3.076-6.089,4.616-13.788,5.232-20.39a140.094,140.094,0,0,0-.126-29.45,108.332,108.332,0,0,1,3.837,10.634c1.114,3.693,3,8.242,6.859,8.293,2.229.042,4.188-1.661,5.127-3.682a15.887,15.887,0,0,0,1.083-6.53,126.064,126.064,0,0,0-34.56-88.144c3.573-10.187,5.713-21,4.979-31.765A48.871,48.871,0,0,0,118.15,16.25,37.1,37.1,0,0,0,108,8.483Z"/><path class="c" d="M143.381,156.13a141.45,141.45,0,0,1,.141,30.082c-.617,6.6-2.156,14.3-5.232,20.39a28.967,28.967,0,0,1-5.652,7.648c-6.949,6.6-14.036,8.782-23.876,10.368a179.54,179.54,0,0,1-22.4,1.876c-1.243,0-3.956-.007-5.2-.013s-3.956.012-5.2.013c-4.623,0-18.35-1.28-23.44-2.083-8.7-1.6-16.221-4.169-22.526-10.161a28.967,28.967,0,0,1-5.652-7.648c-3.076-6.089-4.615-13.788-5.232-20.39-1.036-11.1-.9-17.959.211-30.082h0c1.952-16.969,4.274-31.219,8.086-45.628A26.926,26.926,0,0,1,60.13,91.25a50.514,50.514,0,0,0,6.743,1.313A112.146,112.146,0,0,0,81.4,93.573a112.172,112.172,0,0,0,14.528-1.01,50.555,50.555,0,0,0,6.673-1.3,26.936,26.936,0,0,1,32.715,19.257C139.124,124.926,141.43,139.17,143.381,156.13Z"/><path class="d" d="M128.635,96.509a270.414,270.414,0,0,1,10.575,45.606c.684,4.661,1.273,9.335,1.813,14.015a2.474,2.474,0,0,0,2.4,2.4,2.415,2.415,0,0,0,2.4-2.4c-1.865-16.15-4.374-32.234-8.648-47.938q-1.779-6.532-3.911-12.959c-.964-2.92-5.6-1.67-4.629,1.276Z"/><path class="d" d="M40.064,78.835C34.919,64.964,31.8,49.126,36.589,34.712,40.359,23.378,48.362,13.58,59.431,8.875A54.039,54.039,0,0,1,77.494,4.918,61.086,61.086,0,0,1,98.146,7.074a41.4,41.4,0,0,1,15.086,7.765,44.086,44.086,0,0,1,11.136,15.114c6.369,13.68,4.65,29.443.243,43.435-.588,1.869-1.232,3.718-1.915,5.554a2.42,2.42,0,0,0,1.676,2.952,2.451,2.451,0,0,0,2.952-1.676c5.529-14.86,8.615-31.981,3.346-47.365a52.319,52.319,0,0,0-11.232-18.745A42.49,42.49,0,0,0,104.189,4.1,59.834,59.834,0,0,0,83.21.02,64.985,64.985,0,0,0,61.834,2.892a45.222,45.222,0,0,0-15.555,8.514A48.466,48.466,0,0,0,34.336,27.53c-6.953,14.793-5.628,31.559-.875,46.819.6,1.939,1.268,3.858,1.975,5.762a2.464,2.464,0,0,0,2.952,1.676,2.419,2.419,0,0,0,1.676-2.952Z"/><path class="d" d="M21.7,156.13a313.964,313.964,0,0,1,8.553-46.944q1.784-6.518,3.918-12.931c.974-2.939-3.66-4.2-4.628-1.276a271.329,271.329,0,0,0-10.729,46.338c-.717,4.927-1.343,9.867-1.914,14.813a2.414,2.414,0,0,0,2.4,2.4,2.458,2.458,0,0,0,2.4-2.4Z"/><path class="d" d="M47.407,88.952a62.4,62.4,0,0,0,13.126,4.875A84.535,84.535,0,0,0,74.073,95.7a98.3,98.3,0,0,0,25.608-1.31,60.871,60.871,0,0,0,14.77-4.971,2.422,2.422,0,0,0,.861-3.284,2.452,2.452,0,0,0-3.284-.861c-7.72,3.683-15.871,5.137-24.346,5.7A91.067,91.067,0,0,1,63.735,89.63a56.376,56.376,0,0,1-13.9-4.822c-2.756-1.377-5.189,2.762-2.423,4.144Z"/><path class="a" d="M81.4,54.188c-5.081,0-10.008,2.271-12.543,6.908-.87,1.486-1.027,3.673-.079,4.858a4.815,4.815,0,0,0,2.356,1.615,51.162,51.162,0,0,0,10.266.859,49.7,49.7,0,0,0,10.266-.859,4.815,4.815,0,0,0,2.356-1.615c.948-1.185.791-3.373-.079-4.858C91.407,56.459,86.333,54.188,81.4,54.188Z"/><path class="d" d="M81.4,51.788a16.837,16.837,0,0,0-13.237,6.055c-1.678,2.139-2.968,4.84-2.229,7.62s3.33,4.278,6,4.7a62.533,62.533,0,0,0,16.924.276c2.777-.325,5.521-.793,7.236-3.278,1.569-2.273,1.057-5.356-.264-7.608-2.973-5.067-8.689-7.706-14.43-7.769-3.09-.033-3.092,4.766,0,4.8a12.392,12.392,0,0,1,9.016,3.68c.837.894,2.217,2.547,1.83,3.905-.358,1.255-2.3,1.338-3.388,1.47a65.891,65.891,0,0,1-13.269.156c-1.335-.11-3.715-.026-4.7-1.1-.924-1,.078-2.581.726-3.505,2.211-3.158,6.048-4.57,9.787-4.61C84.487,56.555,84.5,51.755,81.4,51.788Z"/><path class="d" d="M102.124,52.344a6.288,6.288,0,0,1,1.553-5.05,4.806,4.806,0,0,1,3.287-1.4,5.151,5.151,0,0,1,4.306,2.018,6.319,6.319,0,0,1-.136,7.371,4.9,4.9,0,0,1-6.613,1.078A5.387,5.387,0,0,1,102.124,52.344Z"/><path class="d" d="M50.461,52.344A6.285,6.285,0,0,1,52.015,47.3a4.8,4.8,0,0,1,3.286-1.4,5.148,5.148,0,0,1,4.306,2.018,6.318,6.318,0,0,1-.136,7.37,4.906,4.906,0,0,1-6.613,1.079A5.389,5.389,0,0,1,50.461,52.344Z"/><path class="d" d="M34.743,218.545c-3.46,2.8-6.116,6.284-6.2,10.927-.07,4.051,2.193,6.857,5.626,8.656a28.132,28.132,0,0,0,14.351,2.663,21.763,21.763,0,0,0,10.076-2.7A33.768,33.768,0,0,0,69.469,227.24c1.708-2.584-2.447-4.991-4.145-2.423a29.575,29.575,0,0,1-7.407,7.969,16.232,16.232,0,0,1-7.23,3.028A28.8,28.8,0,0,1,38.83,234.9a13.815,13.815,0,0,1-3.9-1.943c-.405-.292-.145-.116-.064-.048-.1-.088-.214-.175-.313-.269-.15-.144-.3-.289-.448-.434-.251-.244-.243-.362-.025.018a4.8,4.8,0,0,1-.543-1.1c-1.115-3.9,1.862-6.97,4.6-9.189a2.416,2.416,0,0,0,0-3.394,2.455,2.455,0,0,0-3.394,0Z"/><path class="d" d="M124.663,221.939c2.57,2.088,4.847,4.377,4.789,7.917a5.249,5.249,0,0,1-.527,2.068c-.283.656.234-.137-.122.168-.192.165-.369.372-.554.548-.073.07-.155.134-.232.2-.277.24.275-.2-.047.044-.24.181-.491.349-.745.51a13.538,13.538,0,0,1-1.951,1.036,25.82,25.82,0,0,1-11.871,1.5,14.977,14.977,0,0,1-7.2-2.254,29.754,29.754,0,0,1-8.717-8.843c-1.7-2.563-5.858-.162-4.145,2.423a35.8,35.8,0,0,0,9.443,9.9,20.607,20.607,0,0,0,10.118,3.534,30.078,30.078,0,0,0,14.514-2c3.184-1.381,6.095-3.613,6.67-7.239.851-5.378-2.04-9.673-6.029-12.914a2.471,2.471,0,0,0-3.394,0,2.418,2.418,0,0,0,0,3.394Z"/><path class="d" d="M125.369,80.338a122.761,122.761,0,0,1,25.478,42.272,126.592,126.592,0,0,1,5.978,24.182,117.015,117.015,0,0,1,1.082,12.086q.124,3.2.081,6.393c-.027,1.987,0,4.208-1,6-.711,1.273-2.093,2.418-3.529,1.886-1.241-.46-2.128-2.067-2.726-3.343a54.581,54.581,0,0,1-2.032-5.972q-1.306-3.912-2.907-7.716a2.482,2.482,0,0,0-2.953-1.676,2.414,2.414,0,0,0-1.676,2.952q1.548,3.7,2.833,7.493c.671,1.994,1.2,4.041,2,5.989,1.477,3.6,4.141,7.437,8.524,7.2,5.207-.279,7.693-5.348,8.136-9.927a80.893,80.893,0,0,0-.217-13.805,129.68,129.68,0,0,0-15.636-52.388,126.785,126.785,0,0,0-18.045-25.017c-2.1-2.272-5.49,1.129-3.394,3.394Z"/><path class="d" d="M34.036,76.944A128.776,128.776,0,0,0,.673,150.859,121.608,121.608,0,0,0,0,164.445c.032,4.649.474,10.022,4.944,12.636,4.539,2.653,9.057-.368,11.118-4.542a49.96,49.96,0,0,0,2.441-6.754q1.39-4.257,3.13-8.387a2.414,2.414,0,0,0-1.677-2.952,2.463,2.463,0,0,0-2.952,1.676c-1.743,4.162-2.946,8.476-4.524,12.688-.8,2.135-2.622,5.76-5.263,4.038-3.156-2.058-2.45-7.461-2.412-10.672a122.355,122.355,0,0,1,.8-12.546A124.1,124.1,0,0,1,20.94,102.944,121.244,121.244,0,0,1,37.43,80.338c2.1-2.264-1.29-5.667-3.394-3.394Z"/><path class="d" d="M16.893,156.13a158.641,158.641,0,0,0-.609,24.773c.578,8.8,1.716,17.708,5.449,25.8,3.663,7.935,10.539,13.561,18.52,16.812,6.5,2.647,13.41,3.567,20.335,4.273a202.641,202.641,0,0,0,36.407.57c7.12-.557,14.364-1.328,21.251-3.3a36.616,36.616,0,0,0,19.341-12.831c5.314-7.034,7.281-16.218,8.214-24.815a139.783,139.783,0,0,0,.487-24.479c-.152-2.27-.343-4.537-.548-6.8a2.465,2.465,0,0,0-2.4-2.4,2.417,2.417,0,0,0-2.4,2.4,159.027,159.027,0,0,1,.672,23.774c-.482,8.156-1.351,16.66-4.771,24.185a29.512,29.512,0,0,1-15.857,14.977c-6.216,2.506-13.066,3.457-19.576,4.1a192.358,192.358,0,0,1-35.153.349c-3.18-.27-6.358-.58-9.528-.95q-.948-.111-1.895-.231c-.515-.064-.073-.006-.441-.057-.283-.04-.567-.079-.85-.123-1.861-.289-3.713-.707-5.537-1.172-7.316-1.865-14.465-5.347-19.078-11.534-4.892-6.56-6.657-15.247-7.415-23.237a144.314,144.314,0,0,1-.352-23.492c.15-2.2.335-4.4.534-6.59a2.417,2.417,0,0,0-2.4-2.4,2.451,2.451,0,0,0-2.4,2.4Z"/></svg>