<svg xmlns="http://www.w3.org/2000/svg" width="153.251" height="285.09" viewBox="0 0 153.251 285.09"><defs><style>.a{fill:#fff;}.b{fill:#211715;}.c{fill:#f8b8b4;}</style></defs><path class="a" d="M10.8,260.03c4.813-1.207,9.636-1.825,14.222-3.538,4.961-1.853,5.92-2.645,9.872-5.246l8.714-5.935a50.4,50.4,0,0,0,.92,13.411,16.054,16.054,0,0,0,4.884,8.839c-3.619.741-7.631,1.568-7.631,1.568-10.423,1.757-25.4,2.982-34.382,2.608a5.957,5.957,0,0,1-3.764-1.611A6.2,6.2,0,0,1,2.6,264.831a6.108,6.108,0,0,1,4-3.555C8,260.783,9.4,260.381,10.8,260.03Z"/><path class="a" d="M84.455,272.027l.24,1.25a4.485,4.485,0,0,1,2.14,3.92,5.131,5.131,0,0,1-2.45,3.76,10.852,10.852,0,0,1-4.18,1.23,200.46,200.46,0,0,1-25.24.2,5.875,5.875,0,0,1-4.13-2.2,5.351,5.351,0,0,1-.83-4.08,5.515,5.515,0,0,1,3.43-3.84l.49-2.03c-5.05-1.9-8.16-5.9-9.4-11.52-1.93-8.72-.68-17.74.4-26.48,1.89-15.31,2.74-30.59,3.47-45.99.96-20.59,4.62-90.48,6.94-104.56.32-1.95.65-12.61-2.21-18.94l.03-.02c-1.69-3.28-3.41-7.74-3.41-7.76-2.43-9.89-.65-19.06,3.54-27.67l-.24-.88c-.88-6.31-1.87-13.96,2.43-19.32a12.9,12.9,0,0,1,8.66-4.62c5.35-.57,9.84,2.32,14.26,4.9l.02.07c4.82-1.32,11.47-1.63,16.44-1.63a71.633,71.633,0,0,1,15.39,1.89l.08-.33c4.42-2.58,8.91-5.47,14.27-4.9,3.33.35,6.46,1.48,8.56,4.1,4.3,5.37,3.4,13.53,2.52,19.84l-.24.88c4.19,8.61,5.97,17.78,3.54,27.67,0,.02-1.72,4.48-3.41,7.76l.03.02c-2.86,6.33-2.53,16.99-2.21,18.94,2.32,14.08,5.98,83.97,6.95,104.56.72,15.4,1.57,30.68,3.46,45.99,1.08,8.74,2.33,17.76.4,26.48-1.42,6.42-5.27,10.73-11.69,12.21l2.51,1.34a5.515,5.515,0,0,1,3.43,3.84,5.4,5.4,0,0,1-.83,4.08,5.877,5.877,0,0,1-4.14,2.2,200.316,200.316,0,0,1-25.23-.2,10.8,10.8,0,0,1-4.18-1.23,5.131,5.131,0,0,1-2.45-3.76,4.464,4.464,0,0,1,2.14-3.92l.25-1.31a45.16,45.16,0,0,1-6.4-1.72,7.485,7.485,0,0,0-6.49,0A45.777,45.777,0,0,1,84.455,272.027Z"/><path class="b" d="M96.6,56.645c-1.607.5-5.3.184-5.606-2.847.035-4.008,4.5-4.232,6.6-2.888C99.311,52.01,100.017,55.256,96.6,56.645Z"/><path class="b" d="M74.448,40.683c-.654,2.117-.243,6.982,3.751,7.386,5.28-.046,5.576-5.93,3.805-8.691C80.554,37.117,76.277,36.186,74.448,40.683Z"/><path class="b" d="M114.273,40.683c.654,2.117.243,6.983-3.751,7.386-5.28-.046-5.576-5.93-3.805-8.692C108.166,37.116,112.443,36.186,114.273,40.683Z"/><path class="b" d="M85.849,61.651A7.611,7.611,0,0,0,91.5,64.658a5.806,5.806,0,0,0,5.66-3.112H93.019a5.757,5.757,0,0,0,5.548,3.109,7.546,7.546,0,0,0,5.607-3.054,2.407,2.407,0,0,0-.861-3.284,2.474,2.474,0,0,0-3.284.861c.3-.387-.161.111-.289.226.244-.219.124-.1-.074.026-.111.069-.239.12-.345.194-.264.182.335-.1.029,0-.125.039-.248.087-.375.124s-.252.069-.379.1c-.186.04-.511-.011-.029.014-.159-.008-.616.105-.744,0,.064.052.452.112.111,0-.122-.038-.247-.062-.367-.107.221.082.194.075.006-.037.379.227-.028-.054-.1-.1-.234-.141.1.216-.04-.018-.1-.159-.187-.31-.271-.476a2.415,2.415,0,0,0-4.144,0c-.066.131-.135.259-.21.385-.254.426.109-.018-.1.109-.033.02-.383.289-.169.158s-.34.131.076-.024c-.116.043-.241.062-.356.1-.4.148.322.019.052,0s-.54.011-.808,0c-.3-.015-.084-.038.083.012-.12-.036-.25-.05-.371-.081-.155-.038-.308-.084-.458-.136-.064-.022-.42-.2-.158-.055.3.161-.167-.1-.224-.135-.109-.064-.212-.135-.318-.2.257.165.187.134-.017-.036-.094-.078-.377-.43-.046,0a2.465,2.465,0,0,0-3.284-.861c-.983.634-1.675,2.216-.861,3.284Z"/><path class="b" d="M92.691,57.233v2.292a2.467,2.467,0,0,0,2.4,2.4l.638-.086a2.4,2.4,0,0,0,1.059-.617l.375-.486a2.385,2.385,0,0,0,.328-1.211V57.233a2.464,2.464,0,0,0-2.4-2.4l-.638.085a2.4,2.4,0,0,0-1.059.617l-.375.486a2.379,2.379,0,0,0-.328,1.212Z"/><path class="b" d="M38.5,59.847c3.8-.679,7.6-1.362,11.458-1.673,3.389-.273,6.8-.316,10.2-.293,3.089.02,3.092-4.78,0-4.8-3.463-.023-6.943.021-10.4.309-4.215.353-8.379,1.085-12.539,1.828a2.422,2.422,0,0,0-1.676,2.953A2.454,2.454,0,0,0,38.5,59.847Z"/><path class="b" d="M48.277,73.584c.616-.535,1.235-1.066,1.865-1.585q.381-.313.767-.621c-.014.011.493-.384.319-.251-.159.122.189-.141.221-.165a42.162,42.162,0,0,1,3.509-2.352c1.178-.709,2.363-1.412,3.577-2.058.586-.311,1.179-.608,1.782-.885.186-.086.372-.169.56-.251.069-.031.355-.149.129-.056.417-.172.839-.332,1.262-.489a2.4,2.4,0,0,0-1.276-4.629A52.875,52.875,0,0,0,44.883,70.19a2.412,2.412,0,0,0,0,3.394,2.458,2.458,0,0,0,3.394,0Z"/><path class="b" d="M151.5,55.218c-4.16-.743-8.324-1.475-12.539-1.828-3.454-.288-6.932-.332-10.4-.309-3.087.02-3.094,4.82,0,4.8,3.4-.023,6.811.02,10.2.293,3.856.311,7.655.994,11.458,1.673a2.469,2.469,0,0,0,2.953-1.676,2.422,2.422,0,0,0-1.676-2.953Z"/><path class="b" d="M143.838,70.19a50.645,50.645,0,0,0-16.109-9.948,2.412,2.412,0,0,0-2.952,1.677,2.463,2.463,0,0,0,1.676,2.952,27.347,27.347,0,0,1,3.644,1.606c1.254.655,2.463,1.39,3.662,2.139,1.164.728,2.317,1.474,3.429,2.281l.374.275c.041.031.5.382.322.242-.149-.115.2.159.233.184l.386.311c.662.541,1.306,1.1,1.941,1.675a2.4,2.4,0,0,0,3.394-3.394Z"/><path class="b" d="M137.99,27.053c1.051-7.6,2.17-17.505-4.175-23.275A15.93,15.93,0,0,0,121.64.1c-4.624.53-8.586,2.9-12.53,5.2-2.666,1.556-.253,5.706,2.423,4.144,3.2-1.867,6.566-4.129,10.337-4.575,2.983-.353,6.626.4,8.823,2.56,4.606,4.528,3.461,12.61,2.668,18.346a2.483,2.483,0,0,0,1.676,2.953,2.418,2.418,0,0,0,2.953-1.676Z"/><path class="b" d="M133.363,28.511a39.584,39.584,0,0,1,4.142,21.052,32.772,32.772,0,0,1-4.961,13.667c-1.6,2.65,2.545,5.065,4.144,2.423a58.761,58.761,0,0,0,3.87-8.2,27.391,27.391,0,0,0,1.747-7.887c.791-8.151-1.275-16.169-4.8-23.475a2.423,2.423,0,0,0-3.284-.861,2.452,2.452,0,0,0-.861,3.284Z"/><path class="b" d="M51.213,26.088c-3.522,7.306-5.588,15.324-4.8,23.475a27.391,27.391,0,0,0,1.747,7.887,58.761,58.761,0,0,0,3.87,8.2c1.6,2.639,5.749.229,4.144-2.423a32.711,32.711,0,0,1-4.961-13.667,39.644,39.644,0,0,1,4.142-21.052,2.465,2.465,0,0,0-.861-3.284,2.423,2.423,0,0,0-3.284.861Z"/><path class="c" d="M121.236,16.641c-.686-.721-1.166-1.18-1.809-1.907a2.046,2.046,0,0,1,1.064-3.21,17.372,17.372,0,0,1,5.232-.862c2.782.323,3.585,3.051,3.806,3.974a10.7,10.7,0,0,1-.4,6.378,1.736,1.736,0,0,1-1.741,1.038,2.19,2.19,0,0,1-.975-.677,62.367,62.367,0,0,1-5.182-4.734"/><path class="c" d="M67.485,16.641c.686-.721,1.166-1.18,1.809-1.907a2.046,2.046,0,0,0-1.065-3.21A17.361,17.361,0,0,0,63,10.662c-2.782.323-3.585,3.051-3.806,3.974a10.7,10.7,0,0,0,.4,6.378,1.736,1.736,0,0,0,1.741,1.038,2.19,2.19,0,0,0,.975-.677,62.367,62.367,0,0,0,5.182-4.734"/><path class="b" d="M63.045,13.062a11.527,11.527,0,0,1,1.893.113L64.3,13.09c.621.086,1.238.2,1.848.344a10.652,10.652,0,0,1,1.722.492l-.574-.242a2.439,2.439,0,0,1,.409.241l-.486-.375a2.371,2.371,0,0,1,.38.376l-.375-.486a2.432,2.432,0,0,1,.268.453l-.242-.573a2.4,2.4,0,0,1,.158.578l-.086-.638a2.39,2.39,0,0,1,0,.528l.086-.638a2.421,2.421,0,0,1-.141.523l.242-.573a8.926,8.926,0,0,1-.845,1.291c-.279.417-.548.841-.79,1.28a2.4,2.4,0,0,0,4.145,2.423c.2-.374.43-.735.664-1.091.272-.413.594-.8.844-1.23a4.462,4.462,0,0,0,.419-3.554,4.861,4.861,0,0,0-1.025-1.775A4.543,4.543,0,0,0,69.146,9.3a13.88,13.88,0,0,0-2.625-.682,15.935,15.935,0,0,0-3.476-.353,2.518,2.518,0,0,0-1.7.7,2.4,2.4,0,0,0,1.7,4.1Z"/><path class="b" d="M125.723,8.262a15.49,15.49,0,0,0-3.105.287A20.069,20.069,0,0,0,119.9,9.2a4.486,4.486,0,0,0-2.771,2.275,4.809,4.809,0,0,0-.5,2.015,4.647,4.647,0,0,0,.486,2.037,9.343,9.343,0,0,0,.845,1.292c.279.417.548.84.789,1.28a2.424,2.424,0,0,0,3.284.861,2.451,2.451,0,0,0,.861-3.284c-.241-.439-.511-.863-.79-1.28a8.92,8.92,0,0,1-.844-1.291l.241.573a2.363,2.363,0,0,1-.14-.523l.085.638a2.39,2.39,0,0,1,0-.528l-.086.638a2.4,2.4,0,0,1,.158-.578l-.242.573a2.488,2.488,0,0,1,.268-.453l-.375.486a2.371,2.371,0,0,1,.38-.376l-.485.375a2.391,2.391,0,0,1,.408-.241l-.573.242a10.611,10.611,0,0,1,1.721-.492c.61-.142,1.227-.258,1.848-.344l-.638.085a11.527,11.527,0,0,1,1.893-.113,2.419,2.419,0,0,0,2.4-2.4,2.45,2.45,0,0,0-2.4-2.4Z"/><path class="b" d="M79.037,9.772c5.057-1.363,10.418-1.549,15.63-1.552a62.248,62.248,0,0,1,15.017,1.817c3,.75,4.275-3.878,1.276-4.628A67.734,67.734,0,0,0,94.667,3.42c-5.626,0-11.449.253-16.906,1.724-2.979.8-1.715,5.434,1.276,4.628Z"/><path class="b" d="M55.36,25.776c-.826-5.957-1.93-13.691,3-18.254a10.756,10.756,0,0,1,8.9-2.586c3.629.6,6.815,2.69,9.932,4.509,2.673,1.56,5.092-2.586,2.423-4.144C75.876,3.121,72.077.8,67.719.186A15.671,15.671,0,0,0,55.253,3.871c-6.665,5.784-5.6,15.378-4.522,23.182a2.416,2.416,0,0,0,2.953,1.676,2.465,2.465,0,0,0,1.676-2.953Z"/><path class="b" d="M4.976,271.084a4.651,4.651,0,0,1-1.34-.958A6.2,6.2,0,0,1,2.6,264.831a6.108,6.108,0,0,1,4-3.555,75,75,0,0,1,9.782-2.481,77.188,77.188,0,0,1,2.123,12.8c-4.132.212-7.982.275-11.106.145A6.309,6.309,0,0,1,4.976,271.084Z"/><path class="b" d="M52.8,269.951a7.8,7.8,0,0,0-5.023,9.3,7.388,7.388,0,0,0,3.7,4.549c2.022,1.088,4.233,1.039,6.469,1.125,4.781.183,9.568.227,14.35.083q3.585-.11,7.162-.365a13.691,13.691,0,0,0,6.431-1.784,7.507,7.507,0,0,0,3.344-5.657,6.9,6.9,0,0,0-3.332-5.992c-2.6-1.683-5.01,2.471-2.423,4.144a1.9,1.9,0,0,1,.374,2.974c-.9,1.125-2.806,1.4-4.147,1.5-4.356.322-8.724.466-13.091.469q-3.342,0-6.684-.1-1.488-.045-2.977-.108a8.376,8.376,0,0,1-2.775-.292,2.79,2.79,0,0,1-.106-5.21,2.469,2.469,0,0,0,1.676-2.952,2.418,2.418,0,0,0-2.952-1.676Z"/><path class="b" d="M134.373,274.579a2.789,2.789,0,0,1-.106,5.21,7.835,7.835,0,0,1-2.527.281q-1.613.069-3.226.119-3.341.1-6.683.1c-4.368,0-8.736-.147-13.091-.469-1.342-.1-3.243-.369-4.147-1.5a1.9,1.9,0,0,1,.373-2.974c2.585-1.672.181-5.829-2.423-4.144a6.8,6.8,0,0,0-1.27,10.59c3.106,3.322,8.756,2.965,12.9,3.137,4.777.2,9.562.2,14.341.056,4.2-.127,9.195.116,11.54-4.168s-.108-9.217-4.405-10.87a2.418,2.418,0,0,0-2.952,1.676,2.454,2.454,0,0,0,1.676,2.952Z"/><path class="b" d="M133.143,273.246a17.322,17.322,0,0,0,9.682-5.938c2.818-3.579,3.864-7.9,4.41-12.343,1.324-10.793-1.068-21.778-2.112-32.5-1.559-16-2.162-32.057-2.977-48.1q-.987-19.4-2.135-38.78c-.77-12.932-1.57-25.866-2.635-38.777-.352-4.272-.711-8.55-1.256-12.8-.111-.863-.224-1.726-.359-2.585-.022-.137-.04-.275-.066-.41.043.225.048.549.016.034-.034-.532-.076-1.062-.1-1.595a48.473,48.473,0,0,1,.619-10.274,23.211,23.211,0,0,1,1.43-5.216,2.478,2.478,0,0,0-.861-3.284,2.417,2.417,0,0,0-3.283.861,35.6,35.6,0,0,0-2.586,11.829A41.582,41.582,0,0,0,131,81.814c.094.7.207,1.4.308,2.106-.127-.884.041.328.071.569q.083.672.159,1.345c.232,2.036.43,4.076.616,6.116,1.108,12.136,1.87,24.3,2.621,36.468q1.235,20,2.263,40.013c.727,13.94,1.25,27.9,2.255,41.819.4,5.463.866,10.92,1.453,16.365.576,5.34,1.377,10.659,1.8,16.015a51.237,51.237,0,0,1-.745,15.8,13.241,13.241,0,0,1-5.153,8.174,14.517,14.517,0,0,1-4.778,2.013c-3,.724-1.73,5.354,1.276,4.628Z"/><path class="b" d="M56.854,268.618a12.513,12.513,0,0,1-8.075-5.513c-2.262-3.708-2.7-8.388-2.83-12.633a104.113,104.113,0,0,1,1.085-15.891c.666-5.415,1.271-10.834,1.749-16.269,1.337-15.217,1.9-30.486,2.684-45.738q1-19.515,2.164-39.021c.762-12.679,1.551-25.361,2.62-38.018.194-2.3.4-4.6.631-6.9q.146-1.441.308-2.882.068-.6.141-1.2c.023-.186.047-.371.07-.557.043-.341.09-.636.01-.083a49.309,49.309,0,0,0-.46-16.882,26.977,26.977,0,0,0-1.75-5.5,2.416,2.416,0,0,0-3.283-.861,2.46,2.46,0,0,0-.861,3.284c1.449,3.306,1.835,7.156,2.01,10.724.078,1.587.1,3.179.039,4.766-.019.508-.051,1.014-.089,1.521-.029.4-.068.481.016-.007-.029.17-.055.34-.081.51-.6,3.856-.946,7.751-1.291,11.635-1.1,12.425-1.881,24.881-2.641,37.33q-1.22,19.95-2.239,39.913c-.76,14.687-1.3,29.392-2.471,44.055-.443,5.545-.975,11.084-1.637,16.607-.643,5.365-1.405,10.727-1.533,16.136-.2,8.61.9,18.874,8.911,23.86a18.811,18.811,0,0,0,5.527,2.239c3,.725,4.282-3.9,1.276-4.628Z"/><path class="b" d="M33.684,249.173a52.126,52.126,0,0,1-5.808,3.555,41.7,41.7,0,0,1-8.333,2.906c-3.226.791-6.5,1.342-9.723,2.169-2.715.7-5.843,1.446-7.842,3.566a7.736,7.736,0,0,0-1.447,8.052,7.433,7.433,0,0,0,6.706,4.7,102.785,102.785,0,0,0,15.8-.415c6.487-.475,12.97-1.193,19.386-2.266A2.419,2.419,0,0,0,44.1,268.49a2.458,2.458,0,0,0-2.953-1.676A184.488,184.488,0,0,1,11.07,269.4c-1.609,0-4.174.4-5.5-.748a2.968,2.968,0,0,1,.166-4.235c1.8-1.454,4.713-1.856,6.957-2.378,3-.7,6.04-1.225,9.021-2a47.216,47.216,0,0,0,8.455-3.1,51.249,51.249,0,0,0,5.942-3.619c2.569-1.693.167-5.852-2.422-4.145Z"/><path class="b" d="M105.379,140.065A35.865,35.865,0,0,0,99.3,150.408c-1.581,4.362-2.664,9.969-.45,14.284,2.206,4.3,7.353,6.653,12.065,6.367a13.629,13.629,0,0,0,7.25-2.493,16.78,16.78,0,0,0,4.366-5.3c1.986-3.469,4.029-7.143,7.032-9.851,2.3-2.073-1.1-5.459-3.394-3.394a36.763,36.763,0,0,0-6.16,7.985c-1.747,2.809-2.965,6.224-6.25,7.574-3.19,1.311-7.45.776-9.809-1.889-2.544-2.874-1.474-7.477-.436-10.787a29.9,29.9,0,0,1,5.258-9.447,2.473,2.473,0,0,0,0-3.394,2.417,2.417,0,0,0-3.394,0Z"/><path class="b" d="M109.646,161.887a6.98,6.98,0,0,0-1.571,2.745,7.772,7.772,0,0,0-.288,1.394,7.521,7.521,0,0,0-.088,1.453,2.534,2.534,0,0,0,.7,1.7,2.4,2.4,0,0,0,3.394,0,2.4,2.4,0,0,0,.7-1.7,5.968,5.968,0,0,1,.045-1.134l-.086.638a6.273,6.273,0,0,1,.4-1.5l-.242.574a4.56,4.56,0,0,1,.559-.985l-.375.485c.075-.094.153-.185.236-.271a2.488,2.488,0,0,0,.7-1.7,2.439,2.439,0,0,0-.7-1.7,2.411,2.411,0,0,0-1.7-.7,2.473,2.473,0,0,0-1.7.7Z"/><path class="b" d="M103.594,159.193a7.363,7.363,0,0,0-1.553,2.894,10.868,10.868,0,0,0-.266,1.142,5.458,5.458,0,0,0-.116,2.376,2.4,2.4,0,0,0,2.952,1.676,2.431,2.431,0,0,0,1.435-1.1,2.522,2.522,0,0,0,.241-1.849l-.016-.061.086.638a1.2,1.2,0,0,1,.01-.275l-.085.638a10.683,10.683,0,0,1,.645-2.634l-.242.573a4.359,4.359,0,0,1,.532-.934l-.375.486c.047-.059.1-.117.146-.173a2.531,2.531,0,0,0,.7-1.7,2.443,2.443,0,0,0-.7-1.7,2.4,2.4,0,0,0-3.394,0Z"/><path class="b" d="M80.337,144a28.877,28.877,0,0,1,4.551,8.091c1.022,3.036,2.178,7.389.651,10.419-1.469,2.915-5.168,4.179-8.259,3.786a8.2,8.2,0,0,1-4.459-1.916,16.664,16.664,0,0,1-2.906-4.193c-2.157-3.838-4.239-8.159-7.85-10.845a2.417,2.417,0,0,0-3.284.861,2.458,2.458,0,0,0,.861,3.284,15.9,15.9,0,0,1,3.57,4.664c1.2,1.979,2.261,4.033,3.452,6.014a14.648,14.648,0,0,0,4.252,4.793,13.969,13.969,0,0,0,6.57,2.156,13.074,13.074,0,0,0,11.556-5.172c2.778-3.853,2.125-9.227.956-13.55a32.942,32.942,0,0,0-6.267-11.786,2.413,2.413,0,0,0-3.394,0,2.461,2.461,0,0,0,0,3.394Z"/><path class="b" d="M75.534,165.4c.07.075.137.153.2.234l-.375-.486a4.393,4.393,0,0,1,.527.926l-.242-.573a6.209,6.209,0,0,1,.407,1.5l-.086-.638a6.109,6.109,0,0,1,.041,1.261,2.4,2.4,0,0,0,4.1,1.7l.375-.486a2.4,2.4,0,0,0,.328-1.211,5.9,5.9,0,0,0-.025-1.135,9.7,9.7,0,0,0-.312-1.717A6.954,6.954,0,0,0,78.928,162a2.4,2.4,0,0,0-3.394,0,2.417,2.417,0,0,0-.7,1.7,2.574,2.574,0,0,0,.7,1.7Z"/><path class="b" d="M81.634,162.811c.038.044.074.088.11.133l-.375-.486a4.172,4.172,0,0,1,.508.89l-.242-.574a9.786,9.786,0,0,1,.6,2.473l-.086-.638a2.269,2.269,0,0,1,.04.545l.085-.639-.017.061a2.483,2.483,0,0,0,.242,1.85,2.4,2.4,0,0,0,3.284.861,2.516,2.516,0,0,0,1.1-1.435,5.407,5.407,0,0,0-.087-2.322,11.424,11.424,0,0,0-.254-1.2,10,10,0,0,0-.6-1.577,5.939,5.939,0,0,0-.917-1.336,2.4,2.4,0,0,0-4.1,1.7l.086.638a2.4,2.4,0,0,0,.617,1.059Z"/><path class="b" d="M14.089,259.512q.723,2.882,1.232,5.811.115.675.221,1.353.06.395.117.791l.048.339q-.051-.39.006.042.188,1.473.325,2.953a2.454,2.454,0,0,0,2.4,2.4,2.427,2.427,0,0,0,2.4-2.4,82.967,82.967,0,0,0-2.12-12.565,2.4,2.4,0,1,0-4.629,1.276Z"/><path class="b" d="M83.972,274.537a47.8,47.8,0,0,0,5.763-1.324c1.469-.438,3.072-1.3,4.625-1.3s3.153.862,4.626,1.3a47.57,47.57,0,0,0,5.763,1.324,2.473,2.473,0,0,0,2.953-1.677,2.419,2.419,0,0,0-1.677-2.952,47.614,47.614,0,0,1-6.169-1.446c-1.813-.56-3.562-1.35-5.5-1.35s-3.683.792-5.5,1.35a47.614,47.614,0,0,1-6.169,1.446,2.419,2.419,0,0,0-1.677,2.952,2.457,2.457,0,0,0,2.953,1.677Z"/></svg>