<svg xmlns="http://www.w3.org/2000/svg" width="183.827" height="197.2" viewBox="0 0 183.827 197.2"><defs><style>.a{fill:#b29683;}.b{fill:#211715;}.c{fill:#fff;}.d{fill:#febe69;}.e{fill:#a98a75;}.f{fill:#9e785f;}</style></defs><path class="a" d="M68.067,138.968c-1.788-19.638.858-39.5,11.037-56.823A15.281,15.281,0,0,1,77.1,80.093c-5.337-6.785-5.345-15.245-4.415-23.491a36.51,36.51,0,0,0-8.134-3.836,42.507,42.507,0,0,0-18.988-2.357c-13.412,1.752-25.986,6.955-34.679,18.926C2.934,80.279-.351,95.89,5.006,108.4c2.211,5.166,6.559,9.829,11.047,13.211,4.732,3.566,19.4,9.54,32,3.051-.67,1.611-1.315,3.232-1.9,4.874-2.5,6.991-3.919,14.753-1.586,21.8s11.115,13.76,26.2,11.26l2.828-.913C70.32,154.56,68.783,146.831,68.067,138.968Z"/><path class="b" d="M82.846,64.7c-2.223-5.239-6.635-9.162-11.628-11.725a48.8,48.8,0,0,0-19.026-5.171,51.848,51.848,0,0,0-18.01,2.565A50.155,50.155,0,0,0,19.09,57.755,47.08,47.08,0,0,0,.64,87.642a40.2,40.2,0,0,0,.763,17.78A33.479,33.479,0,0,0,11.51,120.966c9.174,8.242,23.6,11.561,35.216,6.92a2.474,2.474,0,0,0,1.676-2.952,2.417,2.417,0,0,0-2.952-1.677,28.239,28.239,0,0,1-16.607,1.152,30.412,30.412,0,0,1-11.422-4.754A30.877,30.877,0,0,1,7.1,107.23a33.108,33.108,0,0,1-2.18-15.456A42.344,42.344,0,0,1,19.2,63.766c7.55-6.591,17.814-10.239,27.726-11.1a41.73,41.73,0,0,1,19.866,3.511c5.166,2.242,9.661,5.659,11.908,10.953a2.413,2.413,0,0,0,3.283.861,2.463,2.463,0,0,0,.861-3.284Z"/><path class="b" d="M70.132,160.284c-7.574,1.214-16.491.139-21.389-6.135.152.194-.261-.368-.351-.5-.223-.329-.434-.668-.63-1.014a9.069,9.069,0,0,1-.729-1.512,22.3,22.3,0,0,1-1.246-7.766c.047-5.534,1.731-10.9,3.75-16,2.106-5.32,4.628-10.478,6.413-15.922,1.59-4.848,2.687-10.267,1.266-15.3a15.631,15.631,0,0,0-10.037-10.32A17.014,17.014,0,0,0,33.6,87.355c-4.809,2.825-8.114,8.358-7.289,14a10,10,0,0,0,11.766,8.247,2.418,2.418,0,0,0,1.676-2.953,2.457,2.457,0,0,0-2.952-1.676C33,105.6,30.565,102,31.01,98.6a10.36,10.36,0,0,1,7.2-8.072c3.858-1.192,7.983-.813,11.124,1.9,3.345,2.894,4.113,7.082,3.567,11.319-.656,5.088-2.792,10.006-4.788,14.685a112.357,112.357,0,0,0-5.645,14.825c-2.22,8.276-2.575,18.3,3.528,25.045,6.363,7.032,16.573,8.021,25.409,6.605a2.419,2.419,0,0,0,1.676-2.953,2.458,2.458,0,0,0-2.952-1.676Z"/><path class="c" d="M171.115,148.632c-1.084-9.63-4.418-15.984-10.124-22.029a23.66,23.66,0,0,0-6.763-5.047,18.808,18.808,0,0,0-9.568-1.9,5.654,5.654,0,0,0-.607.076c-5,.871-10.638.622-12.756-.37a13.6,13.6,0,0,1-4.192-3.742,9.777,9.777,0,0,1,1.372-12.691c1.583-1.445,2.966-1.994,6.293-1.875,1.672.06,3.881,1.435,5.5,1.907A16.653,16.653,0,0,0,153.5,101.4a23.7,23.7,0,0,0,3.451-2.37c4.252-3.438,7.179-8.412,6.816-13.548a15.977,15.977,0,0,0,6.054-3.377,15.189,15.189,0,0,0,1.963-2.015c3.824-4.861,4.913-10.583,4.881-16.47-8.646,4.653-21.475,4.663-31.261,1.275-5.44-1.883-7.989-5.718-13.024-8.232a16.106,16.106,0,0,0-14.368-.014c-4.777,2.376-7.911,6.254-13.066,8.079-10.294,3.645-22.829,3.6-31.867-1.432l-.793-.6-.047-.036c-.164,6.221.827,12.3,4.859,17.429a15.3,15.3,0,0,0,2,2.042l.028-.029a15.978,15.978,0,0,0,6.057,3.379c-.364,5.136,2.563,10.11,6.815,13.548a23.65,23.65,0,0,0,3.452,2.37,16.653,16.653,0,0,0,13.234,1.556c1.615-.472,3.823-1.847,5.5-1.907,3.326-.119,4.71.43,6.293,1.875a9.777,9.777,0,0,1,1.372,12.691,13.6,13.6,0,0,1-4.192,3.742c-2.118.992-7.757,1.241-12.756.37a5.672,5.672,0,0,0-.608-.076,18.812,18.812,0,0,0-9.568,1.9,23.668,23.668,0,0,0-6.762,5.047c-5.707,6.045-9.041,12.4-10.124,22.029-.873,7.761.07,17.239,3.747,24.938,2.87,2.76,5.867,4.126,9.975,5.389,7.382,2.271,21.928,3.859,32.92,3.859,11.74,0,25.539-1.588,32.921-3.859,4.107-1.263,7.1-2.629,9.975-5.389C171.045,165.871,171.988,156.393,171.115,148.632Z"/><path class="a" d="M176.038,55.238c-1.133-9.121-4.811-18.175-8.781-26.764,1.026-6.494,1.895-11.133.836-17.323-.414-2.422-2.648-6.077-4.38-7.136a12.442,12.442,0,0,0-10.338-.906,47.342,47.342,0,0,0-12.743,7.1A30.86,30.86,0,0,0,134.1,8.63a61.215,61.215,0,0,0-9.068-.6,83.134,83.134,0,0,0-11.057.6,25.138,25.138,0,0,0-5.993,1.3,48.288,48.288,0,0,0-12.438-6.82,12.5,12.5,0,0,0-10.363.906c-1.736,1.059-3.975,4.714-4.391,7.136-1.061,6.188-.191,10.827.838,17.318-3.971,8.591-7.651,17.646-8.784,26.769-.306,2.463-.543,4.955-.606,7.425h0l.047.036.793.6c9.038,5.036,21.573,5.077,31.867,1.432,5.155-1.825,8.289-5.7,13.066-8.079a16.106,16.106,0,0,1,14.368.014c5.035,2.514,7.584,6.349,13.024,8.232,9.785,3.388,22.611,3.378,31.258-1.273A71.472,71.472,0,0,0,176.038,55.238Z"/><path class="a" d="M143.762,190.258a31.121,31.121,0,0,1-6.247-8.012c7.775-.656,15.145-1.831,19.878-3.287a37.073,37.073,0,0,0,4.191-1.525c3.7,3.11,6.739,4.655,7.377,9.044a5.962,5.962,0,0,1-.8,4.189c-.63.843-2.75,2.75-7.008,3.61a27.847,27.847,0,0,1-9.724.171,18.765,18.765,0,0,1-4.283-1.686A26.391,26.391,0,0,1,143.762,190.258Z"/><path class="a" d="M100.156,193.4a12.639,12.639,0,0,1-4.48,1.132,25.73,25.73,0,0,1-13.163-2.115c-1.923-.866-3.877-2.137-4.533-4.142a6.056,6.056,0,0,1,.957-5.1c1.763-2.659,4.857-4.252,6.786-6.544a30.984,30.984,0,0,0,5.829,2.331,78.845,78.845,0,0,0,11.576,2.335c.322,5.458.8,8.912-1.663,11.192A5.953,5.953,0,0,1,100.156,193.4Z"/><path class="b" d="M162.8,181.473a10.519,10.519,0,0,1,3.383,3.787,5.845,5.845,0,0,1,.449,2.294,5.426,5.426,0,0,1-.17,1.2.709.709,0,0,1-.183.413c.136-.135.145-.135.024,0a6.043,6.043,0,0,1-2.591,1.813,17.241,17.241,0,0,1-6.139,1.368c-3.21.2-5.941.017-8.7-1.376a21.747,21.747,0,0,1-7.852-7.612c-1.7-2.562-5.859-.161-4.144,2.423,3.824,5.761,9.172,10.587,16.281,11.274a25.277,25.277,0,0,0,12.341-1.651c2.755-1.191,5.3-3.14,5.779-6.284.706-4.589-1.667-8.259-5.087-11.042a2.472,2.472,0,0,0-3.394,0,2.417,2.417,0,0,0,0,3.394Z"/><path class="b" d="M127.037,67.415c-1.837.567-6.058.211-6.408-3.254.04-4.582,5.145-4.838,7.541-3.3C130.132,62.117,130.939,65.828,127.037,67.415Z"/><path class="b" d="M101.709,49.168c-.748,2.42-.278,7.982,4.288,8.443,6.036-.052,6.374-6.779,4.35-9.935C108.689,45.091,103.8,44.027,101.709,49.168Z"/><path class="b" d="M147.236,49.168c.748,2.421.278,7.982-4.288,8.443-6.036-.052-6.374-6.779-4.35-9.936C140.255,45.091,145.144,44.027,147.236,49.168Z"/><path class="b" d="M115.039,72.964a8.324,8.324,0,0,0,6.167,3.268,6.307,6.307,0,0,0,6.174-3.387h-4.145a6.246,6.246,0,0,0,6.046,3.383,8.25,8.25,0,0,0,6.113-3.321,2.415,2.415,0,0,0-.861-3.284,2.462,2.462,0,0,0-3.284.861c.155-.2.068-.083-.055.024s-.214.208-.329.3c.256-.216-.025,0-.154.084s-.263.148-.4.221c-.328.183.3-.1-.048.032-.141.053-.284.1-.429.142s-.288.079-.434.11c-.116.025-.589.05-.124.027-.286.014-.565,0-.85,0,.479.005-.182-.045-.384-.129.249.1.007-.005-.075-.078l-.184-.164c-.278-.256.124.217-.1-.091a3.79,3.79,0,0,1-.309-.544,2.416,2.416,0,0,0-4.145,0c-.075.15-.152.3-.239.441-.347.567.094-.06-.17.194-.033.032-.357.311-.227.208.176-.139-.375.177-.031.034-.131.055-.275.071-.407.12-.405.147.229.03-.032.015-.3-.018-.617.011-.923,0-.241-.011-.22-.049,0,0-.142-.031-.284-.056-.424-.092-.177-.044-.352-.1-.524-.156-.045-.015-.448-.187-.222-.08.265.124-.249-.144-.3-.172-.124-.072-.245-.15-.364-.231.455.311-.543-.617-.2-.16a2.479,2.479,0,0,0-3.284-.861,2.415,2.415,0,0,0-.861,3.283Z"/><path class="d" d="M136.919,102.726c-2.546,4.018-6.352,9.46-11.04,10.266S116,112,113.27,108.108a13.529,13.529,0,0,1-1.765-10.767A22.4,22.4,0,0,1,117.5,87.135c2.425,1.889,5.762,4.252,8.175,6.137,1.136.887,9.211,6.809,11.629,8.646"/><path class="b" d="M122.907,68.087v2.621a2.469,2.469,0,0,0,2.4,2.4l.638-.086A2.4,2.4,0,0,0,127,72.405a2.5,2.5,0,0,0,.7-1.7V68.087a2.467,2.467,0,0,0-2.4-2.4l-.638.086a2.407,2.407,0,0,0-1.059.617,2.5,2.5,0,0,0-.7,1.7Z"/><path class="b" d="M81.023,177.7c-2.883,2.358-5.838,5.337-5.663,9.374s3.51,6.415,6.927,7.84a27.894,27.894,0,0,0,11.6,2.143c3.6-.119,7.691-.722,10.048-3.736,2.223-2.843,1.932-6.64,1.722-10.034-.19-3.069-4.991-3.09-4.8,0a29.872,29.872,0,0,1,.085,4.859,5.739,5.739,0,0,1-.4,1.66,5.289,5.289,0,0,1-.561.786,6.626,6.626,0,0,1-3.912,1.5,23.293,23.293,0,0,1-11.248-1.308,9.464,9.464,0,0,1-4.018-2.34c-2.284-2.712,1.759-5.827,3.619-7.349a2.417,2.417,0,0,0,0-3.394,2.454,2.454,0,0,0-3.394,0Z"/><path class="b" d="M115.293,85.975c-5.526,6.061-9.243,15.409-4.32,23.012,4.043,6.244,13.623,8.851,19.89,4.406,3.434-2.435,5.9-5.945,8.128-9.456,1.662-2.614-2.491-5.025-4.145-2.422-1.843,2.9-3.893,6.119-6.833,8.026-2.85,1.847-6.7,1.532-9.618-.058a9.67,9.67,0,0,1-4.885-9.151c.133-4.181,2.431-7.951,5.178-10.963,2.077-2.279-1.308-5.683-3.395-3.394Z"/><path class="e" d="M122.45,84.357a11.514,11.514,0,0,0-4.871,2.84c2.42,1.881,5.71,4.212,8.1,6.075,1.136.887,9.211,6.809,11.629,8.646a18.9,18.9,0,0,0,1.066-8.985c-.807-3.947-2.553-5.827-3.777-6.779a13.016,13.016,0,0,0-2.025-1.233c-2.656-1.325-6.033-1.167-8.951-.8A8.152,8.152,0,0,0,122.45,84.357Z"/><path class="b" d="M121.812,82.043a14.357,14.357,0,0,0-5.93,3.457,2.41,2.41,0,0,0,0,3.394c6.648,5.148,13.511,10.016,20.21,15.1,1.357,1.029,3.032-.164,3.526-1.434,2.035-5.233,1.917-11.773-1.621-16.334-3.706-4.78-10.625-5.636-16.185-4.18-2.986.781-1.72,5.413,1.276,4.628a15.028,15.028,0,0,1,6.976-.113,6.959,6.959,0,0,1,1.579.583c.307.16.611.332.905.515-.02-.013.81.554.464.287a7.329,7.329,0,0,1,.682.613c.135.136.26.28.391.419.068.076.134.154.2.233q-.2-.265-.045-.056a9.46,9.46,0,0,1,1.273,2.409,18.929,18.929,0,0,1,.543,2.01c.1.445-.009-.25.02.08.021.243.04.485.05.729a17.143,17.143,0,0,1-1.135,6.9l3.526-1.434c-3-2.272-6.037-4.483-9.057-6.722q-.9-.669-1.8-1.341c-.2-.149-.395-.3-.595-.449-.261-.192.822.637.07.053q-.492-.381-.985-.759c-2.27-1.736-4.61-3.379-6.869-5.128v3.394a9.2,9.2,0,0,1,3.812-2.223C126.043,85.8,124.785,81.161,121.812,82.043Z"/><path class="b" d="M136.292,87.38a8.422,8.422,0,0,1,1.448-1.356l-.486.376c.309-.239.625-.468.94-.7a2.315,2.315,0,0,0,1.145-2.392,1.786,1.786,0,0,0-.284-.892l-.376-.486a2.4,2.4,0,0,0-1.059-.617l-.638-.086a2.4,2.4,0,0,0-1.211.328c-.584.43-1.17.86-1.733,1.318a7.539,7.539,0,0,0-1.14,1.112,2.468,2.468,0,0,0,0,3.394,2.414,2.414,0,0,0,1.7.7l.638-.086a2.387,2.387,0,0,0,1.059-.617Z"/><path class="a" d="M154.228,121.556a18.808,18.808,0,0,0-9.568-1.9,5.654,5.654,0,0,0-.607.076c-5,.871-10.638.622-12.756-.37a13.6,13.6,0,0,1-4.192-3.742,9.777,9.777,0,0,1,1.372-12.691c1.583-1.445,2.966-1.994,6.293-1.875,1.672.06,3.881,1.435,5.5,1.907A16.649,16.649,0,0,0,153.5,101.4a23.7,23.7,0,0,0,3.451-2.37c4.252-3.438,7.179-8.412,6.816-13.548a15.982,15.982,0,0,0,6.056-3.379c10.193,17.332,12.844,37.21,11.054,56.862-1.007,11.057-3.617,21.856-10.445,31.068a28,28,0,0,1-3.009,3.486l-.059.057c3.68-7.7,4.624-17.183,3.751-24.947-1.084-9.63-4.418-15.984-10.124-22.029A23.66,23.66,0,0,0,154.228,121.556Z"/><path class="a" d="M94.716,121.556a18.812,18.812,0,0,1,9.568-1.9,5.672,5.672,0,0,1,.608.076c5,.871,10.638.622,12.756-.37a13.6,13.6,0,0,0,4.192-3.742,9.777,9.777,0,0,0-1.372-12.691c-1.583-1.445-2.967-1.994-6.293-1.875-1.673.06-3.881,1.435-5.5,1.907A16.649,16.649,0,0,1,95.445,101.4a23.65,23.65,0,0,1-3.452-2.37c-4.252-3.438-7.179-8.412-6.815-13.548a15.978,15.978,0,0,1-6.057-3.379c-10.192,17.332-12.843,37.21-11.054,56.862,1.007,11.057,3.618,21.856,10.446,31.068a28,28,0,0,0,3.009,3.486l.059.057c-3.681-7.7-4.625-17.183-3.751-24.947,1.083-9.63,4.417-15.984,10.124-22.029A23.668,23.668,0,0,1,94.716,121.556Z"/><path class="b" d="M155.254,97.336c-3.6,2.9-8.152,4.621-12.79,3.693-2.248-.45-4.181-1.748-6.406-2.211a11.507,11.507,0,0,0-6.8.7c-3.963,1.791-6.384,6.415-6.261,10.654a13.4,13.4,0,0,0,6.04,10.625,12.208,12.208,0,0,0,6.256,1.777,38.971,38.971,0,0,0,9.05-.469,2.418,2.418,0,0,0,1.677-2.952,2.46,2.46,0,0,0-2.953-1.676,34.364,34.364,0,0,1-6.63.363,18.821,18.821,0,0,1-2.532-.231c-.372-.066-.737-.156-1.1-.249-.119-.031-.236-.071-.352-.111-.216-.073.23.151-.19-.087a8.291,8.291,0,0,1-4.463-7.487,6.763,6.763,0,0,1,1.689-4.352,4.525,4.525,0,0,1,3.126-1.828c2.057-.251,3.576.386,5.428,1.17a18.365,18.365,0,0,0,6.311,1.394c5.359.259,10.213-2.037,14.3-5.327a2.415,2.415,0,0,0,0-3.394,2.457,2.457,0,0,0-3.394,0Z"/><path class="b" d="M75.766,83.161c-9.626,17.82-12.154,38.624-9.812,58.565,1.13,9.618,3.621,19.188,8.984,27.368a28.584,28.584,0,0,0,8.94,9.244,35.528,35.528,0,0,0,10.234,3.779,136.984,136.984,0,0,0,26.142,3.03,150.662,150.662,0,0,0,28.57-1.864c7.5-1.2,15.508-3.016,20.946-8.72,6.591-6.914,10.317-16.45,12.128-25.692a110.184,110.184,0,0,0,1.548-29.858,92.888,92.888,0,0,0-6.959-29q-1.493-3.5-3.309-6.855c-1.469-2.718-5.614-.3-4.145,2.423,9.076,16.8,11.288,36.293,9.276,55.083-.955,8.92-3.244,17.824-8.095,25.457-2.049,3.225-4.483,6.3-7.841,8.228a33.578,33.578,0,0,1-9.475,3.295A131,131,0,0,1,126.8,180.4a147.22,147.22,0,0,1-25.486-1.782c-6.623-1.051-13.929-2.392-18.748-7.447-6.129-6.428-9.345-15.42-10.974-23.99a106.048,106.048,0,0,1-1.313-27.946,86.464,86.464,0,0,1,6.5-27.2c.942-2.2,2-4.343,3.134-6.446,1.468-2.718-2.674-5.144-4.145-2.423Z"/><path class="b" d="M90.3,100.73a22.086,22.086,0,0,0,12.567,5.319,18.74,18.74,0,0,0,6.454-.776c1.838-.561,3.547-1.82,5.509-1.835a8.3,8.3,0,0,1,2.244.2,3.986,3.986,0,0,1,1.379.7,7.146,7.146,0,0,1,2.61,4.31c.585,3.26-1.048,5.993-3.371,7.841a7.73,7.73,0,0,1-1,.667c-.491.278-.2.1-.077.049a6.133,6.133,0,0,1-.592.183,13.248,13.248,0,0,1-2.551.393,33.866,33.866,0,0,1-7.588-.31,2.475,2.475,0,0,0-2.952,1.676A2.418,2.418,0,0,0,104.6,122.1a40.9,40.9,0,0,0,7.906.535,16.323,16.323,0,0,0,6.158-1.122,13.109,13.109,0,0,0,7.073-9.4,11.978,11.978,0,0,0-4.918-11.962,10.02,10.02,0,0,0-5.788-1.517c-2.517-.007-4.377,1.133-6.685,1.909-5.191,1.745-10.5.135-14.66-3.21a2.473,2.473,0,0,0-3.394,0,2.418,2.418,0,0,0,0,3.394Z"/><path class="b" d="M158.648,100.73c4.176-3.407,7.222-8.309,7.542-13.767a2.414,2.414,0,0,0-2.4-2.4,2.455,2.455,0,0,0-2.4,2.4c-.016.276-.045.55-.07.825-.031.347.106-.59,0,0-.023.121-.042.242-.066.362a13.985,13.985,0,0,1-.416,1.61q-.129.4-.279.789c-.021.053-.175.438-.055.146.133-.323-.076.166-.1.228a16.735,16.735,0,0,1-.792,1.506q-.416.7-.892,1.363c-.093.131-.191.259-.286.388.122-.165.178-.223.018-.027-.186.226-.372.451-.565.67a21.869,21.869,0,0,1-2.624,2.513,2.409,2.409,0,0,0,0,3.394,2.467,2.467,0,0,0,3.394,0Z"/><path class="f" d="M134.416,23.625c.172-.578.332-1.158.483-1.733a94.442,94.442,0,0,0,2.4-12.675c-.959-.219-2.008-.411-3.2-.587a61.215,61.215,0,0,0-9.068-.6,83.134,83.134,0,0,0-11.057.6c-.866.1-1.643.215-2.36.341a94.075,94.075,0,0,0,2.431,12.921c1.21,4.62,3.02,9.48,7.01,12.11a5.922,5.922,0,0,0,6.833,0C131.382,31.7,133.2,27.688,134.416,23.625Z"/><path class="b" d="M93.69,97.336a21.858,21.858,0,0,1-2.559-2.44q-.291-.327-.568-.668c-.032-.04-.293-.371-.113-.137.2.261-.123-.17-.161-.221-.337-.465-.654-.946-.947-1.441q-.409-.691-.753-1.421a4.425,4.425,0,0,1-.193-.427c.06.176.125.314.027.055s-.2-.523-.283-.788a13.984,13.984,0,0,1-.427-1.607c-.031-.151-.056-.3-.084-.453-.076-.412.016.091.006.092s-.076-.842-.08-.917a2.4,2.4,0,0,0-4.8,0c.319,5.458,3.366,10.36,7.541,13.767a2.457,2.457,0,0,0,3.394,0,2.426,2.426,0,0,0,0-3.394Z"/><path class="b" d="M79.423,27.548c-4,8.7-7.671,17.675-8.921,27.239-1.071,8.2-1.373,17.131,3.092,24.456a19.417,19.417,0,0,0,10.514,8.451c2.946.951,4.208-3.682,1.276-4.628-6.733-2.173-10.059-9.223-10.629-15.83-.687-7.957.806-16.155,3.3-23.685a131.991,131.991,0,0,1,5.509-13.58,2.471,2.471,0,0,0-.861-3.284,2.42,2.42,0,0,0-3.284.861Z"/><path class="b" d="M165.314,29.971C168.89,37.743,172.179,45.8,173.5,54.3c1.093,7.023,1.668,15.177-1.85,21.637a14.622,14.622,0,0,1-8.154,7.131c-2.928.944-1.676,5.581,1.276,4.628,8.113-2.618,12.8-10.306,13.918-18.428,1.2-8.709-.345-18.026-3.023-26.325a139.52,139.52,0,0,0-6.211-15.393,2.419,2.419,0,0,0-3.284-.861,2.456,2.456,0,0,0-.861,3.284Z"/><path class="b" d="M109.346,10.032a91.284,91.284,0,0,0,2.843,14.145c1.118,3.771,2.755,7.657,5.7,10.373a10.12,10.12,0,0,0,5.785,2.908,8.711,8.711,0,0,0,6.035-1.817c3.33-2.474,5.273-6.142,6.58-10A81.593,81.593,0,0,0,139.6,10.032a2.411,2.411,0,0,0-2.4-2.4,2.461,2.461,0,0,0-2.4,2.4,88.494,88.494,0,0,1-2.361,11.77c-.8,2.945-1.82,6.1-3.879,8.43-.89,1.007-2.138,2.236-3.535,2.442a4.629,4.629,0,0,1-3.737-1.518c-2.261-2.082-3.477-5-4.359-7.889a81.517,81.517,0,0,1-2.782-13.235,2.48,2.48,0,0,0-2.4-2.4,2.413,2.413,0,0,0-2.4,2.4Z"/><path class="b" d="M83.944,27.846c-.714-4.5-1.494-9-1.143-13.568.255-3.318,1.506-7.4,4.615-8.736,3.862-1.663,7.769-.23,11.3,1.509a51.641,51.641,0,0,1,5.592,3.181c.673.442,1.332.9,1.971,1.392,1.26.964,2.268.584,3.643.19,4.183-1.2,8.781-1.33,13.107-1.381a58.718,58.718,0,0,1,13.445,1.057,26.863,26.863,0,0,1,2.689.739,3.743,3.743,0,0,0,1.783.334,3.71,3.71,0,0,0,1.82-1.023,37.49,37.49,0,0,1,4.612-2.989c3.437-1.956,7.43-4.183,11.524-3.694A6.781,6.781,0,0,1,163.523,7.1a11.281,11.281,0,0,1,2.4,5.606c.685,5.08-.188,10.129-.982,15.139a2.474,2.474,0,0,0,1.676,2.952,2.418,2.418,0,0,0,2.953-1.676c1.171-7.392,3.083-16.264-1.007-23.1A11.453,11.453,0,0,0,160.334.246c-4.017-.674-7.581.375-11.211,2.027a44.932,44.932,0,0,0-10.189,6.236l2.335-.617c-5.394-1.973-11.345-2.268-17.037-2.266-2.8,0-5.592.119-8.375.4a35.5,35.5,0,0,0-8.515,1.591l2.335.617a47.089,47.089,0,0,0-9.092-5.593C97.184,1.017,93.64-.349,89.8.08a11.772,11.772,0,0,0-8.99,5.172c-2.117,3.114-2.746,6.6-2.882,10.306-.167,4.557.675,9.083,1.387,13.564A2.417,2.417,0,0,0,82.268,30.8a2.458,2.458,0,0,0,1.676-2.952Z"/></svg>